<svg fill="#fff" xmlns="http://www.w3.org/2000/svg" viewBox="0 0 106 106"><path d="M75.9 28.7c-18.8 0-22-7.1-22-7.2-.1-.4-.5-.6-.9-.6s-.7.2-.9.6c0 .1-3.3 7.2-22 7.2-.5 0-.9.4-.9.9v31.9c0 13.1 22.5 23.1 23.4 23.5.1.1.3.1.4.1s.3 0 .4-.1c1-.4 23.4-10.4 23.4-23.5V29.6c0-.5-.4-.9-.9-.9zm-2.4 10.7C62.8 49.3 54.3 63 51.8 69.5c-.1.2-.3.4-.5.4h-.1c-.2 0-.3-.1-.5-.2L34.9 53.6c-.1-.1 4.6-4.4 4.9-4.2l8.7 6.8c3.4-4 11.7-13 23.3-20 .2-.1 1.9 2.5 1.9 2.5.1.3 0 .5-.2.7z"/><path class="st0" d="M53 0C23.7 0 0 23.7 0 53s23.7 53 53 53 53-23.7 53-53S82.3 0 53 0zm30.4 63.9c0 16.7-28.7 29.5-29.9 30-.2.1-.3.1-.5.1s-.3 0-.5-.1c-1.2-.5-29.9-13.3-29.9-30V23.1c0-.6.5-1.2 1.2-1.2 23.9 0 28-9.1 28.1-9.2.2-.4.6-.7 1.1-.7.5 0 .9.3 1.1.8 0 .1 4.1 9.2 28.1 9.2.7 0 1.2.5 1.2 1.2v40.7z"/></svg>