<svg xmlns="http://www.w3.org/2000/svg" viewBox="164 187.6 285.5 417"><style>.st6{fill:#ecf0f2}.st9{fill:#51656b}.st10{fill:#ef3e42}.st12{fill:#939393}.st13{fill:#a5a5a5}.st15{fill:#47535c}.st17{fill:#dd905d}.st19{opacity:.1;fill:#010101}.st28{fill:#68798a}.st29{fill:#ee3034}.st36{fill:none;stroke:#6e8fa9;stroke-width:.5;stroke-miterlimit:10}.st42{fill:#baafa7}.st43{fill:#235c82}.st47{fill:#465064;stroke:#c4c4c4;stroke-miterlimit:10}.st47,.st48{stroke-width:.15}.st48,.st49{stroke:#c4c4c4;stroke-miterlimit:10}.st48{fill:#235c82}.st49{fill:none;stroke-width:5e-2}.st52{stroke:#c4c4c4;stroke-width:.1;stroke-miterlimit:10}.st52,.st53{fill:#1b3947}.st54{opacity:.35;fill:#010101}.st55,.st56{fill:none;stroke:#a09790;stroke-width:.1;stroke-miterlimit:10}.st56{stroke:#c4c4c4;stroke-width:.15}</style><path fill="#404040" d="M387.4 346.6h31.5l1.5-.5h-34.5z"/><path d="M417.4 328.3h-9.2v-5.9h2.5v-5h-2.5v-49.6c1.6 0 2.9-1.1 2.9-2.5h-15.8c0 1.4 1.3 2.5 2.9 2.5v49.6h-2.5v5h2.5v5.9H389l.1 5.4h28.3v-5.4zm-17.5 25h-4c0 184.7-10.2 251.3-10.2 251.3h14.2V353.3zm6.5 213.6v37.7h14.2s-10.2-66.6-10.2-251.3h-4v213.6z" fill="#A8A29C"/><path d="M384 343.6h38.3v1H384zm0-2.3h38.3v.8H384zm0-4h38.3v1H384zm15.9 229.6h6.5v37.7h-6.5zm0-213.6h6.5v213.6h-6.5z" fill="#AFC6D2"/><path d="M399.9 353.3v251.3h6.5V353.3z" opacity=".5" fill="#b5b6b6"/><path d="M384 342.2v1.4h38.3v-1.5H384zm0-2.7v1.8h38.3v-3.1H384z" fill="#646464"/><path class="st0" d="M384 345.4l1.9.7h34.5l1.9-.7v-.8H384z"/><path d="M417.3 333.7H389c-1.7 3-5 3.6-5 3.6h38.3s-3.2-.7-5-3.6z" fill="#84b6db"/><path class="st6" d="M408.2 262.8h-.8v-31.3h-1.7v-13.2h-.8v-10.8h-3.4v10.8h-.8v13.2H399v31.3h-.8c-1.6 0-2.9 1.1-2.9 2.5h15.8c0-1.4-1.3-2.5-2.9-2.5z"/><path d="M389 332.6h28.4v1H389z" fill="#d02027"/><path class="st6" d="M389 328.3h28.4v4.3H389zm6.6-10.8h2.5v5h-2.5zm12.6 0h2.5v5h-2.5z"/><path class="st9" d="M399 231.5h8.4v1.3H399zm1.6-13.2h5.1v1.3h-5.1z"/><path class="st10" d="M401.4 217h3.4v1.3h-3.4z"/><path class="st9" d="M401.4 206.2h3.4v1.3h-3.4z"/><path class="st10" d="M402.1 204.9h2.1v1.3h-2.1z"/><path class="st6" d="M402.1 193.5h2.1v11.4h-2.1z"/><path class="st10" d="M400.6 230.2h5.1v1.3h-5.1zm2.1-42.6h.9v5.9h-.9z"/><path class="st6" d="M384 350c0 1.9 1.6 3.4 3.4 3.4h31.3c1.9 0 3.4-1.5 3.4-3.4s-1.5-3.4-3.4-3.4h-31.6c-1.6 0-3.1 1.5-3.1 3.4z"/><path d="M233.1 584.6V451.8h-3.3v-46.1h-5.5v-5.5h-5.8v-12h-4.4v-14.1h-3.3V367h-9.5v-28.2h-2.2V367h-9.5v7.1h-3.3v14.1h-4.4v12H176v5.5h-5.5v46.1h-3.3v132.8z" fill="#68bdc6"/><path class="st12" d="M178.5 400.2h2.2v184.4h-2.2zM195 367h2.2v217.6H195zm8.2 0h2.2v217.6h-2.2zm16.5 33.2h2.2v184.4h-2.2z"/><path class="st13" d="M213.6 584.6h-2.2V376.3h-22.5v208.3h-2.2V373.8h26.9z"/><path class="st13" d="M187.8 381.4h24.7v2.4h-24.7zm-5.9 15.5h36.6v2.4h-36.6zm0-7.6h36.6v2.4h-36.6zm48.2 195.3h-2.2V407.1h-55.5v177.5h-2.2V404.7h59.9z"/><path class="st13" d="M171.3 412.4H229v2.4h-57.7zm0 7.8H229v2.4h-57.7zm0 7.8H229v2.4h-57.7zm0 7.7H229v2.4h-57.7zm0 7.8H229v2.4h-57.7zm62.9 141.1H232V453.7h-63.7v130.9h-2.2V451.3h68.1z"/><path class="st13" d="M167.2 459.1h65.9v2.4h-65.9zm0 7.7h65.9v2.4h-65.9zm0 7.8h65.9v2.4h-65.9zm0 7.8h65.9v2.4h-65.9zm0 7.7h65.9v2.4h-65.9zm0 7.8h65.9v2.4h-65.9zm0 7.8h65.9v2.4h-65.9zm0 7.7h65.9v2.4h-65.9zm0 7.8h65.9v2.4h-65.9zm0 7.8h65.9v2.4h-65.9zm0 7.8h65.9v2.4h-65.9zm0 7.7h65.9v2.4h-65.9zm0 7.8h65.9v2.4h-65.9zm0 7.8h65.9v2.4h-65.9zm0 7.7h65.9v2.4h-65.9zm0 7.8h65.9v2.4h-65.9zm0 7.8h65.9v2.4h-65.9zm65.9 7.7v2.5m-65.9 0v-2.5m65.9 7.8v2.4m-65.9 0v-2.4m0-28.6h65.9v2.4h-65.9z"/><path class="st13" d="M167.2 554.7h65.9V578h-65.9z"/><path class="st13" d="M167.2 560.1h65.9v2.4h-65.9zm0 7.7h65.9v2.4h-65.9zm0 7.8h65.9v2.4h-65.9zm0 7.8h65.9v2.4h-65.9z"/><path class="st12" d="M199.1 308.7h2.2v43.4h-2.2z"/><path class="st13" d="M189 367h21.8v7.7H189zm32.9 33.2h2.5v4.5h-2.5zm-45.9 0h2.5v4.5H176z"/><path class="st13" d="M234.2 585.8h-68.1V450.5h3.3v-46.1h5.5V399h5.9v-12h4.4v-14.1h3.3v-7.1h9.5v-38.3h4.4v38.3h9.5v7.1h3.3V387h4.4v12h5.9v5.5h5.5v46.1h3.3v135.2zm-65.9-2.4H232V453h-3.3v-46.1h-5.5v-5.5h-5.9v-12H213v-14.1h-3.3v-7.1h-19v7.1h-3.3v14.1H183v12h-5.9v5.5h-5.5V453h-3.3v130.4z"/><path d="M192.9 338.8h14.5v14.5h-14.5z" fill="#3b9f47"/><path class="st15" d="M361.4 370.7h-2.9v7.8h-3v7.9h-2.1v8.3h-2.7v7.8h-2.3v6h-9.3v-6h-2.4v-7.8H334v-8.3h-2.1v-7.9h-3v-7.8H326V554h35.4z"/><path class="st17" d="M356.4 377.6h5.1v5h-5.1zm-30.4 0h5.9v5H326zm27.4 9.5h8v5h-8zm-2.7 9.4h10.7v5h-10.7zm-9.5 9.4h20.2v5h-20.2zm-15.2 9.5h35.4v5H326zm0 9.4h35.4v5H326zm0 9.5h35.4v5H326zm0 9.4h35.4v5H326zm0 9.4h35.4v5H326zm0 9.5h35.4v5H326zm0 9.4h35.4v5H326zm0 9.5h35.4v5H326zm0 9.4h35.4v5H326zm0 9.4h35.4v5H326zm0 9.5h35.4v5H326zm0 9.4h35.4v5H326zm0 9.5h35.4v5H326zm0 9.4h35.4v5H326zm0 9.4h35.4v5H326zm0 9.5h35.4v5H326z"/><path class="st17" d="M326 537.6h35.4v20.7H326z"/><path class="st17" d="M326 542h35.4v5H326zm0 7.9h35.4v5H326zm0-153.4h10.7v5H326zm0 9.4h15.2v5H326zm0-18.8h8v5h-8z"/><path class="st17" d="M325.1 370.7h2.5V554h-2.5zm4.7 7.8h2.5v175.4h-2.5zm5.1 16.2h2.5V554h-2.5zm5 15h2.5V554h-2.5zm5.1 0h2.5V554H345zm5-15h2.5V554H350zm5.1-16.2h2.5v175.4h-2.5zm4.8-7.8h2.5V554h-2.5z"/><path class="st17" d="M351.9 394.7h3.9v1.8h-3.9zm-25.2-24h2.2v7.8h-2.2zm4.9 20.1h2.7v7.8h-2.7z"/><path class="st17" d="M334 394.7h1.5v3.3H334zm2.7 7.8h2.3v4.9h-2.3zm11.7 0h2.9v4.2h-2.9zm5-10.9h2v4.4h-2zm5.2-20.9h2.5v8.6h-2.5z"/><path d="M326 367.6v3.1h2.9v7.8h3v8.6h2.1v7.6h2.7v7.8h2.4v6h9.3v-6h2.3v-7.8h2.7v-7.8h2.1v-8.4h3v-7.8h2.9v-3.1z" fill="#745448"/><path class="st15" d="M333.3 372.5h20.8v2.5h-20.8zm2.6 7.9h15.6v2.5h-15.6zm2.6 7.9h10.4v2.5h-10.4zm2.6 7.9h5.2v2.5h-5.2z"/><path class="st17" d="M361.4 367.6h8.3v186.3h-8.3z"/><path class="st19" d="M369.7 412.8l-8.3-8.6V554h8.3z"/><path class="st17" d="M296.9 367.6h7.3v186.3h-7.3zm14.5 0h7.3v186.3h-7.3zm7.3 0h7.3v186.3h-7.3z"/><path class="st17" d="M304.2 367.6h7.3v186.3h-7.3z"/><path d="M296.9 367.6h7.3v186.3h-7.3z" opacity=".4" fill="#fff"/><path d="M304.2 367.6h7.3v186.3h-7.3z" opacity=".3" fill="#fff"/><path d="M311.4 367.6h7.3v186.3h-7.3z" opacity=".2" fill="#fff"/><path d="M318.7 367.6h7.3v186.3h-7.3z" opacity=".1" fill="#fff"/><path class="st15" d="M318.7 380.8h3.6v4.4h-3.6zm0 10.7h3.6v4.4h-3.6zm0 10.6h3.6v4.4h-3.6zm0 10.7h3.6v4.4h-3.6zm0 10.6h3.6v4.4h-3.6zm0 10.7h3.6v4.4h-3.6zm0 10.6h3.6v4.4h-3.6zm0 10.7h3.6v4.4h-3.6zm0 10.6h3.6v4.4h-3.6zm0 10.7h3.6v4.4h-3.6zm0 10.6h3.6v4.4h-3.6zm0 10.7h3.6v4.4h-3.6zm0 10.6h3.6v4.4h-3.6zm0 10.7h3.6v4.4h-3.6zm0 10.6h3.6v4.4h-3.6zm0 10.7h3.6v4.4h-3.6zm0 10.6h3.6v4.4h-3.6zm0 10.7h3.6v4.4h-3.6z"/><path class="st15" d="M318.7 536.1h3.6v21.3h-3.6z"/><path class="st15" d="M318.7 542.3h3.6v4.4h-3.6zm-7.3-161.5h3.6v4.4h-3.6zm0 10.7h3.6v4.4h-3.6zm0 10.6h3.6v4.4h-3.6zm0 10.7h3.6v4.4h-3.6zm0 10.6h3.6v4.4h-3.6zm0 10.7h3.6v4.4h-3.6zm0 10.6h3.6v4.4h-3.6zm0 10.7h3.6v4.4h-3.6zm0 10.6h3.6v4.4h-3.6zm0 10.7h3.6v4.4h-3.6zm0 10.6h3.6v4.4h-3.6zm0 10.7h3.6v4.4h-3.6zm0 10.6h3.6v4.4h-3.6zm0 10.7h3.6v4.4h-3.6zm0 10.6h3.6v4.4h-3.6zm0 10.7h3.6v4.4h-3.6zm0 10.6h3.6v4.4h-3.6zm0 10.7h3.6v4.4h-3.6z"/><path class="st15" d="M311.4 536.1h3.6v21.3h-3.6z"/><path class="st15" d="M311.4 542.3h3.6v4.4h-3.6zm-7.2-161.5h3.6v4.4h-3.6zm0 10.7h3.6v4.4h-3.6zm0 10.6h3.6v4.4h-3.6zm0 10.7h3.6v4.4h-3.6zm0 10.6h3.6v4.4h-3.6zm0 10.7h3.6v4.4h-3.6zm0 10.6h3.6v4.4h-3.6zm0 10.7h3.6v4.4h-3.6zm0 10.6h3.6v4.4h-3.6zm0 10.7h3.6v4.4h-3.6zm0 10.6h3.6v4.4h-3.6zm0 10.7h3.6v4.4h-3.6zm0 10.6h3.6v4.4h-3.6zm0 10.7h3.6v4.4h-3.6zm0 10.6h3.6v4.4h-3.6zm0 10.7h3.6v4.4h-3.6zm0 10.6h3.6v4.4h-3.6zm0 10.7h3.6v4.4h-3.6z"/><path class="st15" d="M304.2 536.1h3.6v21.3h-3.6z"/><path class="st15" d="M304.2 542.3h3.6v4.4h-3.6zm-7.3-161.5h3.6v4.4h-3.6zm0 10.7h3.6v4.4h-3.6zm0 10.6h3.6v4.4h-3.6zm0 10.7h3.6v4.4h-3.6zm0 10.6h3.6v4.4h-3.6zm0 10.7h3.6v4.4h-3.6zm0 10.6h3.6v4.4h-3.6zm0 10.7h3.6v4.4h-3.6zm0 10.6h3.6v4.4h-3.6zm0 10.7h3.6v4.4h-3.6zm0 10.6h3.6v4.4h-3.6zm0 10.7h3.6v4.4h-3.6zm0 10.6h3.6v4.4h-3.6zm0 10.7h3.6v4.4h-3.6zm0 10.6h3.6v4.4h-3.6zm0 10.7h3.6v4.4h-3.6zm0 10.6h3.6v4.4h-3.6zm0 10.7h3.6v4.4h-3.6z"/><path class="st15" d="M296.9 536.1h3.6v21.3h-3.6z"/><path class="st15" d="M296.9 542.3h3.6v4.4h-3.6z"/><path d="M361.4 367.6h8.3v186.3h-8.3z" opacity=".4" fill="#010101"/><path class="st15" d="M366.1 380.8h3.6v4.4h-3.6zm0 10.7h3.6v4.4h-3.6zm0 10.6h3.6v4.4h-3.6zm0 10.7h3.6v4.4h-3.6zm0 10.6h3.6v4.4h-3.6zm0 10.7h3.6v4.4h-3.6zm0 10.6h3.6v4.4h-3.6zm0 10.7h3.6v4.4h-3.6zm0 10.6h3.6v4.4h-3.6zm0 10.7h3.6v4.4h-3.6zm0 10.6h3.6v4.4h-3.6zm0 10.7h3.6v4.4h-3.6zm0 10.6h3.6v4.4h-3.6zm0 10.7h3.6v4.4h-3.6zm0 10.6h3.6v4.4h-3.6zm0 10.7h3.6v4.4h-3.6zm0 10.6h3.6v4.4h-3.6zm0 10.7h3.6v4.4h-3.6z"/><path class="st15" d="M366.1 536.1h3.6v21.3h-3.6z"/><path class="st15" d="M366.1 542.3h3.6v4.4h-3.6z"/><path d="M304.2 367.6V554m7.2-186.4V554m7.3-186.4V554m7.2-186.4h.3v186.3h-.3zm35.4 0h.3v186.3h-.3z" fill="none"/><path class="st19" d="M326 367.6l27.4 27.1h-2.7v7.8h-2.3v6h-9.3v-6h-2.4v-7.8H334v-7.6h-2.1v-8.6h-3v-7.8H326z"/><path d="M230.1 321.9h73.2v267h-73.2z" fill="#fdfdfe"/><path d="M230.1 321.9v267m4.6-267v267m4.6-267v267m4.5-267v267m4.6-267v267m4.6-267v267m4.6-267v267m4.6-267v267m4.5-267v267m4.6-267v267m4.6-267v267m4.6-267v267m4.5-267v267m4.6-267v267m4.6-267v267m4.6-267v267m4.6-267v267" fill="none" stroke="#ededee" stroke-miterlimit="10"/><path class="st28" d="M233.1 331.3h67.2v3.9h-67.2zm0 8.2h67.2v3.9h-67.2zm0 8.2h67.2v3.9h-67.2zm0 8.2h67.2v3.9h-67.2zm0 8.2h67.2v3.9h-67.2zm0 8.3h67.2v3.9h-67.2zm0 8.2h67.2v3.9h-67.2zm0 8.2h67.2v3.9h-67.2zm0 8.2h67.2v3.9h-67.2zm0 8.2h67.2v3.9h-67.2zm0 8.2h67.2v3.9h-67.2zm0 8.2h67.2v3.9h-67.2zm0 8.3h67.2v3.9h-67.2zm0 8.2h67.2v3.9h-67.2zm0 8.2h67.2v3.9h-67.2zm0 8.2h67.2v3.9h-67.2zm0 8.2h67.2v3.9h-67.2zm0 8.2h67.2v3.9h-67.2zm0 8.2h67.2v3.9h-67.2zm0 8.3h67.2v3.9h-67.2zm0 8.2h67.2v3.9h-67.2zm0 8.2h67.2v3.9h-67.2zm0 8.2h67.2v3.9h-67.2zm0 8.2h67.2v3.9h-67.2zm0 8.2h67.2v3.9h-67.2zm0 8.2h67.2v3.9h-67.2zm0 8.3h67.2v3.9h-67.2zm0 8.2h67.2v3.9h-67.2zm0 8.2h67.2v3.9h-67.2zm0 8.2h67.2v3.9h-67.2zm0 8.2h67.2v3.9h-67.2zm0 8.2h67.2v3.9h-67.2zm0 8.2h67.2v3.9h-67.2z"/><path class="st28" d="M233.1 590.6h67.2v3.9h-67.2zm0-17.5h67.2v3.9h-67.2zm0 8.2h67.2v3.9h-67.2z"/><path class="st28" d="M233.1 589.5h67.2v3.9h-67.2z"/><path class="st28" d="M233.1 590.7h67.2v3.9h-67.2zm0-17.5h67.2v3.9h-67.2zm0 8.2h67.2v3.9h-67.2z"/><path class="st28" d="M233.1 575.6h67.2v3.9h-67.2z"/><path class="st29" d="M238.3 317.5h6v4.4h-6zm8 0h6v4.4h-6z"/><path d="M239.7 315.5h3.3v2h-3.3zm8 0h3.3v2h-3.3z" fill="#fef8fb"/><path d="M269.6 275.1h3.5v46.7h-3.5zm14.5 11.7h2.7v35.1h-2.7z" fill="#7d7d7d"/><path class="st29" d="M284.1 280.5h2.7v6.2h-2.7z"/><path d="M270.5 258.9h1.6v16.2h-1.6z" fill="#bbb"/><path d="M445.8 594.3v-.2h-10.7v-93.7h-7.6v8.5s-8.7 2.8-17.4 3.4v72.5l-4.8-.6v.1s-6.6.3-10.3.8v-.2c-3.2.4-4.5.4-4.5.4v-54.2c-5.3-.4-13.5-1.5-15.3-3.6v-5.9h-5.7V594h-9.1v.2H357v10.3h92.5v-10.3h-3.7z" fill="#787878"/><path d="M445.8 594.3v-86.9s-4.1-6.3-10.7-7.1v93.9h10.7zm-76.4-72.6s-5 .6-9.1 5v67.6h9.1v-72.6zm25.5 63.2v-53.4s-1.9-.1-4.5-.3v54.2c0-.1 1.3-.2 4.5-.5zm15.1-72.5c-1.6.1-3.3.2-4.8.1v71.8l4.8.6v-72.5z" fill="#c9c9c9"/><path d="M356.9 594.3h92.5v3.8h-92.5z" fill="#afc6d1"/><path class="st36" d="M410 512.4v81.9m1.2-82v82m1.2-82.1v82.1m1.2-82.3v82.3m1.2-82.5v82.5m1.2-82.6v82.6m1.2-82.8v82.8m1.2-83.1v83.1m1.2-83.3v83.3m1.2-83.6v83.6m1.2-83.8v83.8m1.2-84.1v84.1m1.2-84.4v84.4m1.1-84.8v84.8m1.2-85.1v85.1m1.2-93.9v93.9m1.2-93.9v93.9m1.2-93.9v93.9m1.2-93.9v93.9m1.2-93.9v93.9m1.2-93.9v93.9m-63.2-72.6v72.4m1.3-72.4v72.4m1.3-72.4v72.4m1.3-72.4v72.4m1.4-65.8l-.1 65.8m1.4-65.2l-.1 65.2m1.4-64.8l-.1 64.8m1.4-64.5l-.1 64.5m1.4-64.2l-.1 64.2m1.4-63.9l-.1 63.9m1.4-63.7v63.7m1.3-63.5v63.5m1.3-63.4v63.4m1.4-63.2l-.1 63.2m1.4-63.1l-.1 63.1m1.4-63l-.1 63"/><path d="M426 589.2c-7.4-4.8-22.8-4.8-22.8-4.8-18.2.5-22.5 4.8-22.5 4.8H426z" fill="#fffbfd"/><path d="M407.6 594.1c10.3-.6 17.8-4.6 18.4-4.9h-45.3c5.9 3.6 18.4 4.9 18.4 4.9h8.5z" fill="#536b75"/><path d="M427.5 500.4h7.6v93.9h-7.6z" opacity=".59" fill="#c9c9c9"/><path d="M369.4 521.7h5.7v72.7h-5.7z" opacity=".5" fill="#c9c9c9"/><path class="st36" d="M356.9 598.1v6.5m5.8-6.5v6.5m5.7-6.5v6.5m5.8-6.5v6.5m5.8-6.5v6.5m5.8-6.5v6.5m5.8-6.5v6.5m5.8-6.5v6.5m5.7-6.5v6.5m5.8-6.5v6.5m5.8-6.5v6.5m5.8-6.5v6.5m5.8-6.5v6.5m5.8-6.5v6.5m5.7-6.5v6.5m5.8-6.5v6.5m5.8-6.5v6.5"/><g><path class="st6" d="M375.8 562.5s-22.2-47.2-101.5-47.2c-77.2 0-100.2 47.2-100.2 47.2h201.7z"/><path d="M378.9 556.5l-5.4 6h-198l-5.4-6H164v48.1h221v-48.1z" fill="#ada198"/><path class="st42" d="M166.7 575.2h3.7v2h-3.7zm0 7.1h3.7v2h-3.7z"/><path class="st43" d="M183.8 578h12.9v26.6h-12.9zm15.1 0h14.7v26.6h-14.7zm16.8 0h12.9v26.6h-12.9zm37.1 0h12.9v26.6h-12.9zm15.1 0h14.7v26.6h-14.7zm16.8 0h12.9v26.6h-12.9zm35.7 0h12.9v26.6h-12.9zm15.1 0h14.7v26.6h-14.7zm16.9 0h12.9v26.6h-12.9z"/><path d="M369.2 562.5s-22.1-41.4-94.7-41.4-94.7 41.4-94.7 41.4h189.4z" fill="url(#SVGID_1_)"/><path class="st6" d="M364.7 562.5s-23.6-36.2-89.4-36.2-89.4 36.2-89.4 36.2h178.8z"/><path d="M231 585.2h10.9v1.4H231zm0 5.4h10.9v1.4H231zm0 5.3h10.9v1.4H231zm75.9-10.7h10.9v1.4h-10.9zm0 5.4h10.9v1.4h-10.9zm0 5.3h10.9v1.4h-10.9z" fill="#1b3947" stroke="#c4c4c4" stroke-width=".15" stroke-miterlimit="10"/><path d="M252.8 570.1h12.9v3.2h-12.9zm31.9 0h12.9v3.2h-12.9zm-16.8 0h14.7v3.2h-14.7zm52.5 0h12.9v3.2h-12.9zm32 0h12.9v3.2h-12.9zm-16.9 0h14.7v3.2h-14.7zm-35.7 0h18.5v3.2h-18.5zm-68.3 0H250v3.2h-18.5zm-47.7 0h12.9v3.2h-12.9zm31.9 0h12.9v3.2h-12.9zm-16.8 0h14.7v3.2h-14.7zm-34.9-7.6h221v5.4H164z" fill="#a09790"/><path class="st47" d="M267.9 578h14.7v1.7h-14.7z"/><path class="st48" d="M267.9 579.7h14.7v1.7h-14.7z"/><path class="st47" d="M267.9 581.4h14.7v1.7h-14.7z"/><path class="st48" d="M267.9 583.2h14.7v1.7h-14.7z"/><path class="st47" d="M267.9 584.9h14.7v1.7h-14.7z"/><path class="st48" d="M267.9 586.6h14.7v1.7h-14.7z"/><path class="st47" d="M267.9 588.3h14.7v1.7h-14.7z"/><path class="st48" d="M267.9 590.1h14.7v1.7h-14.7z"/><path class="st47" d="M267.9 591.8h14.7v1.7h-14.7z"/><path class="st48" d="M267.9 593.5h14.7v1.7h-14.7z"/><path class="st47" d="M267.9 595.3h14.7v1.7h-14.7z"/><path class="st48" d="M267.9 597h14.7v1.7h-14.7z"/><path class="st47" d="M267.9 598.7h14.7v1.7h-14.7z"/><path class="st48" d="M267.9 600.4h14.7v1.7h-14.7z"/><path class="st47" d="M284.7 578h12.9v1.7h-12.9z"/><path class="st48" d="M284.7 579.7h12.9v1.7h-12.9z"/><path class="st47" d="M284.7 581.4h12.9v1.7h-12.9z"/><path class="st48" d="M284.7 583.2h12.9v1.7h-12.9z"/><path class="st47" d="M284.7 584.9h12.9v1.7h-12.9z"/><path class="st48" d="M284.7 586.6h12.9v1.7h-12.9z"/><path class="st47" d="M284.7 588.3h12.9v1.7h-12.9z"/><path class="st48" d="M284.7 590.1h12.9v1.7h-12.9z"/><path class="st47" d="M284.7 591.8h12.9v1.7h-12.9z"/><path class="st48" d="M284.7 593.5h12.9v1.7h-12.9z"/><path class="st47" d="M284.7 595.3h12.9v1.7h-12.9z"/><path class="st48" d="M284.7 597h12.9v1.7h-12.9z"/><path class="st47" d="M284.7 598.7h12.9v1.7h-12.9z"/><path class="st48" d="M284.7 600.4h12.9v1.7h-12.9z"/><path class="st47" d="M252.8 578h12.9v1.7h-12.9z"/><path class="st48" d="M252.8 579.7h12.9v1.7h-12.9z"/><path class="st47" d="M252.8 581.4h12.9v1.7h-12.9z"/><path class="st48" d="M252.8 583.2h12.9v1.7h-12.9z"/><path class="st47" d="M252.8 584.9h12.9v1.7h-12.9z"/><path class="st48" d="M252.8 586.6h12.9v1.7h-12.9z"/><path class="st47" d="M252.8 588.3h12.9v1.7h-12.9z"/><path class="st48" d="M252.8 590.1h12.9v1.7h-12.9z"/><path class="st47" d="M252.8 591.8h12.9v1.7h-12.9z"/><path class="st48" d="M252.8 593.5h12.9v1.7h-12.9z"/><path class="st47" d="M252.8 595.3h12.9v1.7h-12.9z"/><path class="st48" d="M252.8 597h12.9v1.7h-12.9z"/><path class="st47" d="M252.8 598.7h12.9v1.7h-12.9z"/><path class="st48" d="M252.8 600.4h12.9v1.7h-12.9z"/><path class="st49" d="M252.8 578v24.2M255 578v24.2m2.1-24.2v24.2m2.2-24.2v24.2m2.1-24.2v24.2m2.2-24.2v24.2m2.2-24.2v24.2m18.9-24.2v24.2m2.2-24.2v24.2M289 578v24.2m2.2-24.2v24.2m2.2-24.2v24.2m2.1-24.2v24.2m2.2-24.2v24.2M267.9 578v24.2M270 578v24.2m2.1-24.2v24.2m2.1-24.2v24.2m2.1-24.2v24.2m2-24.2v24.2m2.1-24.2v24.2m2.1-24.2v24.2"/><path class="st43" d="M183.8 578h12.9v26.6h-12.9zm15.1 0h14.7v26.6h-14.7zm16.8 0h12.9v26.6h-12.9z"/><path class="st47" d="M198.9 578h14.7v1.7h-14.7z"/><path class="st48" d="M198.9 579.7h14.7v1.7h-14.7z"/><path class="st47" d="M198.9 581.4h14.7v1.7h-14.7z"/><path class="st48" d="M198.9 583.2h14.7v1.7h-14.7z"/><path class="st47" d="M198.9 584.9h14.7v1.7h-14.7z"/><path class="st48" d="M198.9 586.6h14.7v1.7h-14.7z"/><path class="st47" d="M198.9 588.3h14.7v1.7h-14.7z"/><path class="st48" d="M198.9 590.1h14.7v1.7h-14.7z"/><path class="st47" d="M198.9 591.8h14.7v1.7h-14.7z"/><path class="st48" d="M198.9 593.5h14.7v1.7h-14.7z"/><path class="st47" d="M198.9 595.3h14.7v1.7h-14.7z"/><path class="st48" d="M198.9 597h14.7v1.7h-14.7z"/><path class="st47" d="M198.9 598.7h14.7v1.7h-14.7z"/><path class="st48" d="M198.9 600.4h14.7v1.7h-14.7z"/><path class="st47" d="M215.7 578h12.9v1.7h-12.9z"/><path class="st48" d="M215.7 579.7h12.9v1.7h-12.9z"/><path class="st47" d="M215.7 581.4h12.9v1.7h-12.9z"/><path class="st48" d="M215.7 583.2h12.9v1.7h-12.9z"/><path class="st47" d="M215.7 584.9h12.9v1.7h-12.9z"/><path class="st48" d="M215.7 586.6h12.9v1.7h-12.9z"/><path class="st47" d="M215.7 588.3h12.9v1.7h-12.9z"/><path class="st48" d="M215.7 590.1h12.9v1.7h-12.9z"/><path class="st47" d="M215.7 591.8h12.9v1.7h-12.9z"/><path class="st48" d="M215.7 593.5h12.9v1.7h-12.9z"/><path class="st47" d="M215.7 595.3h12.9v1.7h-12.9z"/><path class="st48" d="M215.7 597h12.9v1.7h-12.9z"/><path class="st47" d="M215.7 598.7h12.9v1.7h-12.9z"/><path class="st48" d="M215.7 600.4h12.9v1.7h-12.9z"/><path class="st47" d="M183.8 578h12.9v1.7h-12.9z"/><path class="st48" d="M183.8 579.7h12.9v1.7h-12.9z"/><path class="st47" d="M183.8 581.4h12.9v1.7h-12.9z"/><path class="st48" d="M183.8 583.2h12.9v1.7h-12.9z"/><path class="st47" d="M183.8 584.9h12.9v1.7h-12.9z"/><path class="st48" d="M183.8 586.6h12.9v1.7h-12.9z"/><path class="st47" d="M183.8 588.3h12.9v1.7h-12.9z"/><path class="st48" d="M183.8 590.1h12.9v1.7h-12.9z"/><path class="st47" d="M183.8 591.8h12.9v1.7h-12.9z"/><path class="st48" d="M183.8 593.5h12.9v1.7h-12.9z"/><path class="st47" d="M183.8 595.3h12.9v1.7h-12.9z"/><path class="st48" d="M183.8 597h12.9v1.7h-12.9z"/><path class="st47" d="M183.8 598.7h12.9v1.7h-12.9z"/><path class="st48" d="M183.8 600.4h12.9v1.7h-12.9z"/><path class="st43" d="M320.4 578h12.9v26.6h-12.9zm15.1 0h14.7v26.6h-14.7zm16.9 0h12.9v26.6h-12.9z"/><path class="st47" d="M335.5 578h14.7v1.7h-14.7z"/><path class="st48" d="M335.5 579.7h14.7v1.7h-14.7z"/><path class="st47" d="M335.5 581.4h14.7v1.7h-14.7z"/><path class="st48" d="M335.5 583.2h14.7v1.7h-14.7z"/><path class="st47" d="M335.5 584.9h14.7v1.7h-14.7z"/><path class="st48" d="M335.5 586.6h14.7v1.7h-14.7z"/><path class="st47" d="M335.5 588.3h14.7v1.7h-14.7z"/><path class="st48" d="M335.5 590.1h14.7v1.7h-14.7z"/><path class="st47" d="M335.5 591.8h14.7v1.7h-14.7z"/><path class="st48" d="M335.5 593.5h14.7v1.7h-14.7z"/><path class="st47" d="M335.5 595.3h14.7v1.7h-14.7z"/><path class="st48" d="M335.5 597h14.7v1.7h-14.7z"/><path class="st47" d="M335.5 598.7h14.7v1.7h-14.7zm16.9-20.7h12.9v1.7h-12.9z"/><path class="st48" d="M352.4 579.7h12.9v1.7h-12.9z"/><path class="st47" d="M352.4 581.4h12.9v1.7h-12.9z"/><path class="st48" d="M352.4 583.2h12.9v1.7h-12.9z"/><path class="st47" d="M352.4 584.9h12.9v1.7h-12.9z"/><path class="st48" d="M352.4 586.6h12.9v1.7h-12.9z"/><path class="st47" d="M352.4 588.3h12.9v1.7h-12.9z"/><path class="st48" d="M352.4 590.1h12.9v1.7h-12.9z"/><path class="st47" d="M352.4 591.8h12.9v1.7h-12.9z"/><path class="st48" d="M352.4 593.5h12.9v1.7h-12.9z"/><path class="st47" d="M352.4 595.3h12.9v1.7h-12.9z"/><path class="st48" d="M352.4 597h12.9v1.7h-12.9z"/><path class="st47" d="M352.4 598.7h12.9v1.7h-12.9zm-32-20.7h12.9v1.7h-12.9z"/><path class="st48" d="M320.4 579.7h12.9v1.7h-12.9z"/><path class="st47" d="M320.4 581.4h12.9v1.7h-12.9z"/><path class="st48" d="M320.4 583.2h12.9v1.7h-12.9z"/><path class="st47" d="M320.4 584.9h12.9v1.7h-12.9z"/><path class="st48" d="M320.4 586.6h12.9v1.7h-12.9z"/><path class="st47" d="M320.4 588.3h12.9v1.7h-12.9z"/><path class="st48" d="M320.4 590.1h12.9v1.7h-12.9z"/><path class="st47" d="M320.4 591.8h12.9v1.7h-12.9z"/><path class="st48" d="M320.4 593.5h12.9v1.7h-12.9z"/><path class="st47" d="M320.4 595.3h12.9v1.7h-12.9z"/><path class="st48" d="M320.4 597h12.9v1.7h-12.9z"/><path class="st47" d="M320.4 598.7h12.9v1.7h-12.9z"/><path class="st49" d="M320.4 578v24.2m2.2-24.2v24.2m2.2-24.2v24.2m2.1-24.2v24.2m2.2-24.2v24.2m2.1-24.2v24.2m2.2-24.2v24.2m19-24.2v24.2m2.1-24.2v24.2m2.2-24.2v24.2m2.1-24.2v24.2M361 578v24.2m2.1-24.2v24.2m2.2-24.2v24.2M335.5 578v24.2m2.1-24.2v24.2m2.1-24.2v24.2m2.1-24.2v24.2m2.1-24.2v24.2M346 578v24.2m2-24.2v24.2m2.1-24.2v24.2"/><path d="M164 602.2h221v2.4H164z" fill="#837c78"/><path class="st42" d="M174 578h9.8v24.2H174zm191.3 0h9.8v24.2h-9.8z"/><path d="M183.8 578l6.4 24.2h-6.4z" opacity=".15" fill="#010101"/><path class="st19" d="M375.1 578l6.4 24.2h-6.4z"/><path class="st52" d="M166.7 573.2h3.7v2h-3.7zm0 7.1h3.7v2h-3.7z"/><path class="st42" d="M378.1 575.2h3.7v2h-3.7zm0 7.1h3.7v2h-3.7z"/><path class="st53" d="M179.5 580.3h4.3v1.8h-4.3zm0 4.4h4.3v1.8h-4.3zm0 4.5h4.3v1.8h-4.3zm0 4.4h4.3v1.8h-4.3zm0 4.5h4.3v1.8h-4.3z"/><path class="st54" d="M183.8 578h12.9v3.3h-12.9zm31.9 0h12.9v3.5h-12.9zm-16.8 0h14.7v3.5h-14.7zm53.9 0h12.9v3.3h-12.9zm31.9 0h12.9v3.5h-12.9z"/><path class="st55" d="M174 582h5.5m-5.5 2.7h5.5m-5.5-4.4h5.5m-5.5 8.9h5.5M174 591h5.5m-5.5 2.6h5.5m-5.5 1.8h5.5m-5.5 2.7h5.5m-5.5 1.8h5.5m-5.5-13.4h5.5"/><path class="st54" d="M268 578h14.6v3.5H268zm52.4 0h12.9v3.3h-12.9zm15.1 0h14.7v3.3h-14.7zm16.9 0h12.9v3.5h-12.9z"/><path class="st49" d="M181.6 580.3v1.7"/><path class="st56" d="M183.8 582h-4.3v-1.7h4.3"/><path class="st49" d="M181.6 598.1v1.8m2.2 0h-4.3m2.1-6.3v1.8"/><path class="st56" d="M183.8 595.4h-4.3v-1.8h4.3m0 6.3h-4.3v-1.8h4.3"/><path class="st49" d="M181.6 589.2v1.8"/><path class="st56" d="M183.8 591h-4.3v-1.8h4.3m0-2.7h-4.3v-1.8h4.3"/><path class="st55" d="M369.6 582h5.5"/><path class="st49" d="M181.6 584.7v1.8"/><path class="st55" d="M369.6 584.7h5.5m-5.5-4.4h5.5m-5.5 8.9h5.5m-5.5 1.8h5.5m-5.5 2.6h5.5m-5.5 1.8h5.5m-5.5 2.7h5.5m-5.5 1.8h5.5m-5.5-13.4h5.5"/><path class="st52" d="M378.1 573.2h3.7v2h-3.7zm0 7.1h3.7v2h-3.7z"/><path class="st53" d="M369.586 581.986h-4.3v-1.8h4.3zm0 4.528h-4.3v-1.8h4.3zm0 4.426h-4.3v-1.8h4.3zm0 4.526h-4.3v-1.8h4.3zm0 4.426h-4.3v-1.8h4.3z"/><path class="st49" d="M367.4 580.3v1.7"/><path class="st56" d="M365.3 582h4.3v-1.7h-4.3"/><path class="st49" d="M367.4 598.1v1.8m-2.1 0h4.3m-2.2-6.3v1.8"/><path class="st56" d="M365.3 595.4h4.3v-1.8h-4.3m0 6.3h4.3v-1.8h-4.3"/><path class="st49" d="M367.4 589.2v1.8"/><path class="st56" d="M365.3 591h4.3v-1.8h-4.3"/><path class="st49" d="M367.4 584.7v1.8"/><path class="st56" d="M365.3 586.5h4.3v-1.8h-4.3"/></g></svg>