<svg xmlns="http://www.w3.org/2000/svg" viewBox="108.1 195 396.9 403.3"><style>.st3{opacity:.1;fill:#010101}.st7{fill:#78b2bf}.st8{fill:#9fa1a3}.st11{fill:#bbb}.st13,.st15{opacity:.15;fill:#010101}.st15{opacity:8.000000e-02}.st25{fill:#d7d6d6}.st26{fill:#e9eee3}</style><path fill="#68798a" d="M193.2 334h86.9v246.4h-86.9z"/><path d="M197 334h.7v246.4h-.7zm4.1 0h.7v246.4h-.7zm4.2 0h.7v246.4h-.7zm4.1 0h.7v246.4h-.7zm4.1 0h.7v246.4h-.7zm4.2 0h.7v246.4h-.7zm4.1 0h.7v246.4h-.7zm4.1 0h.7v246.4h-.7zm4.2 0h.7v246.4h-.7zm4.1 0h.7v246.4h-.7zm4.2 0h.7v246.4h-.7zm4.1 0h.7v246.4h-.7zm4.1 0h.7v246.4h-.7zm4.2 0h.7v246.4h-.7zm4.1 0h.7v246.4h-.7zm4.1 0h.7v246.4h-.7zm4.2 0h.7v246.4h-.7zm4.1 0h.7v246.4h-.7zm4.2 0h.7v246.4h-.7zm4.1 0h.7v246.4h-.7z"/><path d="M193.2 337.7h86.9v.6h-86.9zm0 4.1h86.9v.6h-86.9zm0 4h86.9v.6h-86.9zm0 4h86.9v.6h-86.9zm0 4.1h86.9v.6h-86.9zm0 4h86.9v.6h-86.9zm0 4.1h86.9v.6h-86.9zm0 4h86.9v.6h-86.9zm0 4h86.9v.6h-86.9zm0 4.1h86.9v.6h-86.9zm0 4h86.9v.6h-86.9zm0 4h86.9v.6h-86.9zm0 4.1h86.9v.6h-86.9zm0 4h86.9v.6h-86.9zm0 4.1h86.9v.6h-86.9zm0 4h86.9v.6h-86.9zm0 4h86.9v.6h-86.9zm0 4.1h86.9v.6h-86.9zm0 4h86.9v.6h-86.9zm0 4.1h86.9v.6h-86.9zm0 4h86.9v.6h-86.9zm0 4h86.9v.6h-86.9zm0 4.1h86.9v.6h-86.9zm0 4h86.9v.6h-86.9zm0 4.1h86.9v.6h-86.9zm0 4h86.9v.6h-86.9zm0 4h86.9v.6h-86.9zm0 4.1h86.9v.6h-86.9zm0 4h86.9v.6h-86.9zm0 4h86.9v.6h-86.9zm0 4.1h86.9v.6h-86.9zm0 4h86.9v.6h-86.9zm0 4.1h86.9v.6h-86.9zm0 4h86.9v.6h-86.9zm0 4h86.9v.6h-86.9zm0 4.1h86.9v.6h-86.9zm0 4h86.9v.6h-86.9zm0 4.1h86.9v.6h-86.9zm0 4h86.9v.6h-86.9zm0 4h86.9v.6h-86.9zm0 4.1h86.9v.6h-86.9zm0 4h86.9v.6h-86.9zm0 4h86.9v.6h-86.9zm0 4.1h86.9v.6h-86.9zm0 4h86.9v.6h-86.9zm0 4.1h86.9v.6h-86.9zm0 4h86.9v.6h-86.9zm0 4h86.9v.6h-86.9zm0 4.1h86.9v.6h-86.9zm0 4h86.9v.6h-86.9zm0 4.1h86.9v.6h-86.9zm0 4h86.9v.6h-86.9zm0 4h86.9v.6h-86.9zm0 4.1h86.9v.6h-86.9zm0 4h86.9v.6h-86.9zm0 4.1h86.9v.6h-86.9zm0 4h86.9v.6h-86.9zm0 4h86.9v.6h-86.9zm0 4.1h86.9v.6h-86.9zm0 4h86.9v.6h-86.9z"/><path d="M192.8 334h.7v246.4h-.7zm86.9 0h.7v246.4h-.7z" fill="#3c4b50"/><path d="M280.4 334.3l-87.6.2v-.5l87.6-.3z" fill="#85d3f6"/><path d="M280.4 403.3l-78.9-57.5V334l78.9-.3z" class="st3"/><path fill="#73bbd8" d="M271.8 331.6s-.5-.3-.8 0v-12.1c0-.6 0-1.2-.2-1.8-.2-.8-.8-1.6-1.3-2.3l-9.9-13-4.9 16.1h-36.2l-4.9-16.1-9.9 13c-.5.7-1.1 1.5-1.3 2.3-.2.6-.2 1.2-.2 1.8v12.4c-.3-.3-.8-.4-.8-.4v13.3c0 1.2.5 1.2.5 1.2 1.2 0 .8-3.3.8-3.9v-2.2c.1-.3.1-.8.5-.8.5 0 .7.4.8.8.2.6.2 1.3.2 2 0 .6-.1 1.2.3 1.7l.3.2c.2 0 .3-.3.3-.5 0-1.2-.5-3.7.4-4.7l.3-.2c.4-.1.7.2.8.6.1.3-.2 1.4.6 1.1l.4-.3h57.8l.4.3c.8.4.5-.8.6-1.1.1-.3.4-.7.8-.6l.3.2c.9.9.4 3.5.4 4.7 0 .2.1.5.3.5l.3-.2c.4-.5.3-1.1.3-1.7 0-.7 0-1.3.2-2 .1-.4.4-.9.8-.8.4 0 .4.5.5.8v2.2c0 .6-.4 3.9.8 3.9 0 0 .5 0 .5-1.2v-3.7"/><path fill="#528793" d="M201.5 330.9h70.3v3.1h-70.3z"/><path fill="#62A1B5" d="M202.2 327.9h68.7v3.1h-68.7z"/><path d="M350.6 256.8L328.5 207h-17l-22.1 49.8h-8.9v320.3h79V256.8z" class="st7"/><path d="M312.6 206.6h2.5V307h-2.5zm12.3 0h2.5V307h-2.5z" class="st8"/><path d="M328.5 207l22.1 49.9h8.9v320.2h-79V256.8h8.9l22.1-49.9h17m1.6-2.4h-20.2l-.7 1.5-21.4 48.4H278v325.2h84V254.3h-9.8L330.8 206l-.7-1.5z" class="st8"/><path d="M307.1 306.8v-31.4h-8v-18.6h-18.6v320.4h2.9v-8.5h5.2v8.5h2.9v-8.5h5v8.5h2.9v-8.5h5v8.5h2.9v-8.5h5.5v8.5h2.5V306.8h-8.2zm-23.8 10.7h5.2v5h-5.2v-5zm11-23.5h2.1v5h-5v-5h2.9zm2 7.8v5h-5v-5h5zm0 7.9v5h-5v-5h5zm0 7.8v5h-5v-5h5zm-13 211.9h5.2v5h-5.2v-5zm13-188.3v5h-5v-5h5zm-4.9-2.9v-5h5v5h-5zm4.9 10.7v5h-5v-5h5zm0 7.9v5h-5v-5h5zm0 7.8v5h-5v-5h5zm0 7.8v5h-5v-5h5zm0 7.9v5h-5v-5h5zm-13 7.8h5.2v5h-5.2v-5zm0 7.9h5.2v5h-5.2v-5zm0 7.8h5.2v5h-5.2v-5zm0 7.9h5.2v5h-5.2v-5zm0 7.8h5.2v5h-5.2v-5zm0 7.9h5.2v5h-5.2v-5zm8.1 0h5v5h-5v-5zm0-2.9v-5h5v5h-5zm0-7.9v-5h5v5h-5zm0-7.8v-5h5v5h-5zm0-7.8v-5h5v5h-5zm0-7.9v-5h5v5h-5zm-2.9-7.8h-5.2v-5h5.2v5zm-5.2 49.9h5.2v5h-5.2v-5zm8.1 0h5v5h-5v-5zm4.9 7.9v5h-5v-5h5zm0 7.8v5h-5v-5h5zm-13 7.9h5.2v5h-5.2v-5zm0 7.8h5.2v5h-5.2v-5zm0 7.9h5.2v5h-5.2v-5zm0 7.8h5.2v5h-5.2v-5zm0 7.8h5.2v5h-5.2v-5zm0 7.9h5.2v5h-5.2v-5zm8.1 0h5v5h-5v-5zm0-2.9v-5h5v5h-5zm0-7.8v-5h5v5h-5zm0-7.9v-5h5v5h-5zm0-7.8v-5h5v5h-5zm0-7.9v-5h5v5h-5zm-2.9-7.8h-5.2v-5h5.2v5zm-5.2 49.9h5.2v5h-5.2v-5zm8.1 0h5v5h-5v-5zm4.9 7.9v5h-5v-5h5zm0 7.8v5h-5v-5h5zm0 7.9v5h-5v-5h5zm0 7.8v5h-5v-5h5zm-13 0h5.2v5h-5.2v-5zm0 7.9h5.2v5h-5.2v-5zm8.1 0h5v5h-5v-5zm7.8 0h5v5h-5v-5zm0-2.9v-5h5v5h-5zm0-7.9v-5h5v5h-5zm0-7.8v-5h5v5h-5zm0-7.8v-5h5v5h-5zm0-7.9v-5h5v5h-5zm0-7.8v-5h5v5h-5zm0-7.9v-5h5v5h-5zm0-7.8v-5h5v5h-5zm0-7.9v-5h5v5h-5zm0-7.8v-5h5v5h-5zm0-7.9v-5h5v5h-5zm0-7.8v-5h5v5h-5zm0-7.9v-5h5v5h-5zm0-7.8v-5h5v5h-5zm0-7.9v-5h5v5h-5zm0-7.8v-5h5v5h-5zm0-7.9v-5h5v5h-5zm0-7.8v-5h5v5h-5zm0-7.8v-5h5v5h-5zm0-7.9v-5h5v5h-5zm0-7.8v-5h5v5h-5zm0-7.9v-5h5v5h-5zm0-7.8v-5h5v5h-5zm0-7.9v-5h5v5h-5zm0-7.8v-5h5v5h-5zm0-7.9v-5h5v5h-5zm0-7.8v-5h5v5h-5zm0-7.9v-5h5v5h-5zm-2.9 0h-5v-5h5v5zm-13-4.9h5.2v5h-5.2v-5zm0 7.8h5.2v5h-5.2v-5zm0 7.9h5.2v5h-5.2v-5zm0 7.8h5.2v5h-5.2v-5zm0 7.9h5.2v5h-5.2v-5zm0 7.8h5.2v5h-5.2v-5zm0 7.8h5.2v5h-5.2v-5zm0 70.7h5.2v5h-5.2v-5zm0 70.6h5.2v5h-5.2v-5zm5.2 7.8v5h-5.2v-5h5.2zm-5.2 31.4h5.2v5h-5.2v-5zm8.1 0h5v5h-5v-5zm7.8 0h5v5h-5v-5zm7.9 0h5.5v5h-5.5v-5zm0-2.9v-5h5.5v5h-5.5zm0-7.8v-5h5.5v5h-5.5zm0-7.9v-5h5.5v5h-5.5zm0-7.8v-5h5.5v5h-5.5zm0-7.8v-5h5.5v5h-5.5zm0-7.9v-5h5.5v5h-5.5zm0-7.8v-5h5.5v5h-5.5zm0-7.9v-5h5.5v5h-5.5zm0-7.8v-5h5.5v5h-5.5zm0-7.9v-5h5.5v5h-5.5zm0-7.8v-5h5.5v5h-5.5zm0-7.9v-5h5.5v5h-5.5zm0-7.8v-5h5.5v5h-5.5zm0-7.9v-5h5.5v5h-5.5zm0-7.8v-5h5.5v5h-5.5zm0-7.9v-5h5.5v5h-5.5zm0-7.8v-5h5.5v5h-5.5zm0-7.9v-5h5.5v5h-5.5zm0-7.8v-5h5.5v5h-5.5zm0-7.8v-5h5.5v5h-5.5zm0-7.9v-5h5.5v5h-5.5zm0-7.8v-5h5.5v5h-5.5zm0-7.9v-5h5.5v5h-5.5zm0-7.8v-5h5.5v5h-5.5zm0-7.9v-5h5.5v5h-5.5zm0-7.8v-5h5.5v5h-5.5zm0-7.9v-5h5.5v5h-5.5zm0-7.8v-5h5.5v5h-5.5zm0-7.9v-5h5.5v5h-5.5zm0-7.8v-5h5.5v5h-5.5zm-2.9 0h-5v-5h5v5zm-5-7.9v-5h5v5h-5zm0-7.8v-5h5v5h-5zm5-7.9h-5v-5h5v5zm-20.9-23.5h5.2V291h-5.2v-15.6zm0 18.6h5.2v5h-5.2v-5zm0 7.8h5.2v5h-5.2v-5zm5.2 7.9v5h-5.2v-5h5.2zm-5.2 256v-5h5.2v5h-5.2zm8.1 0v-5h5v5h-5zm7.8 0v-5h5v5h-5zm7.9 0v-5h5.5v5h-5.5zm5.5-251.1h-5.5v-5h5.5v5zm46.9 2.9v-60.9h-18.6v18.6h-8v31.7H325v270.3h2.5v-8.5h5.5v8.5h2.9v-8.5h5v8.5h2.9v-8.5h5v8.4h2.8v-8.4h5.2v8.5h2.9V322.3l-.2-4.8zm-2.9-2.9h-5.2v-5h5.2v5zm-15.9 2.9v5h-5v-5h5zm-4.9-2.9v-5h5v5h-5zm-8.4 214.8h5.5v5h-5.5v-5zm0 7.8h5.5v5h-5.5v-5zm0 7.9h5.5v5h-5.5v-5zm8.4 0h5v5h-5v-5zm0-2.9v-5h5v5h-5zm0-7.9v-5h5v5h-5zm0-7.8v-5h5v5h-5zm0-7.8v-5h5v5h-5zm0-7.9v-5h5v5h-5zm-8.4-52h5.5v5h-5.5v-5zm0 7.8h5.5v5h-5.5v-5zm0 7.9h5.5v5h-5.5v-5zm0 7.8h5.5v5h-5.5v-5zm0 7.8h5.5v5h-5.5v-5zm0 7.9h5.5v5h-5.5v-5zm0 7.8h5.5v5h-5.5v-5zm8.4-2.8v-5h5v5h-5zm0-7.9v-5h5v5h-5zm0-7.8v-5h5v5h-5zm0-7.9v-5h5v5h-5zm0-7.8v-5h5v5h-5zm0-7.9v-5h5v5h-5zm0-7.8v-5h5v5h-5zm0-7.9v-5h5v5h-5zm0-7.8v-5h5v5h-5zm-8.4-52.1h5.5v5h-5.5v-5zm0 7.9h5.5v5h-5.5v-5zm0 7.8h5.5v5h-5.5v-5zm0 7.9h5.5v5h-5.5v-5zm0 7.8h5.5v5h-5.5v-5zm0 7.9h5.5v5h-5.5v-5zm0 7.8h5.5v5h-5.5v-5zm8.4-2.9v-5h5v5h-5zm0-7.8v-5h5v5h-5zm0-7.9v-5h5v5h-5zm0-7.8v-5h5v5h-5zm0-7.8v-5h5v5h-5zm0-7.9v-5h5v5h-5zm0-7.8v-5h5v5h-5zm0-7.9v-5h5v5h-5zm0-7.8v-5h5v5h-5zm0-7.9v-5h5v5h-5zm0-7.8v-5h5v5h-5zm0-7.9v-5h5v5h-5zm0-7.8v-5h5v5h-5zm0-7.9v-5h5v5h-5zm-2.9-7.8h-5.5v-5h5.5v5zm0 2.9v5h-5.5v-5h5.5zm0 7.8v5h-5.5v-5h5.5zm0 7.9v5h-5.5v-5h5.5zm0 7.8v5h-5.5v-5h5.5zm0 7.9v5h-5.5v-5h5.5zm0 7.8v5h-5.5v-5h5.5zm0 7.8v5h-5.5v-5h5.5zm0 7.9v5h-5.5v-5h5.5zm-5.5 62.8h5.5v5h-5.5v-5zm5.5 7.8v5h-5.5v-5h5.5zm-5.5 62.8h5.5v5h-5.5v-5zm5.5 7.8v5h-5.5v-5h5.5zm-5.5 31.4h5.5v5h-5.5v-5zm8.4 0h5v5h-5v-5zm7.8 0h5v5h-5v-5zm0-2.9v-5h5v5h-5zm0-7.8v-5h5v5h-5zm0-7.9v-5h5v5h-5zm0-7.8v-5h5v5h-5zm0-7.8v-5h5v5h-5zm0-7.9v-5h5v5h-5zm0-7.8v-5h5v5h-5zm0-7.9v-5h5v5h-5zm0-7.8v-5h5v5h-5zm0-7.9v-5h5v5h-5zm0-7.8v-5h5v5h-5zm0-7.9v-5h5v5h-5zm0-7.8v-5h5v5h-5zm0-7.9v-5h5v5h-5zm0-7.8v-5h5v5h-5zm0-7.9v-5h5v5h-5zm0-7.8v-5h5v5h-5zm0-7.9v-5h5v5h-5zm0-7.8v-5h5v5h-5zm0-7.8v-5h5v5h-5zm0-7.9v-5h5v5h-5zm0-7.8v-5h5v5h-5zm0-7.9v-5h5v5h-5zm0-7.8v-5h5v5h-5zm0-7.9v-5h5v5h-5zm0-7.8v-5h5v5h-5zm0-7.9v-5h5v5h-5zm0-7.8v-5h5v5h-5zm0-7.9v-5h5v5h-5zm0-7.8v-5h5v5h-5zm0-7.9v-5h5v5h-5zm2.1-20.6h2.9v5h-5v-5h2.1zm2.9 7.8v5h-5v-5h5zm8 5h-5.2v-5h5.2v5zm0-7.9h-5.2v-5h5.2v5zm0-7.8h-5.2v-5h5.2v5zm0-15.7v7.8h-5.2v-7.8h5.2zM335.8 294h5v5h-5v-5zm0 7.8h5v5h-5v-5zm-2.9 7.9v5h-5.5v-5h5.5zm-5.5 256v-5h5.5v5h-5.5zm8.4 0v-5h5v5h-5zm7.8 0v-5h5v5h-5zm13 0h-5.2v-5h5.2v5zm0-7.8h-5.2v-5h5.2v5zm0-7.9h-5.2v-5h5.2v5zm0-7.8h-5.2v-5h5.2v5zm0-7.9h-5.2v-5h5.2v5zm0-7.8h-5.2v-5h5.2v5zm0-7.8h-5.2v-5h5.2v5zm0-7.9h-5.2v-5h5.2v5zm0-7.8h-5.2v-5h5.2v5zm0-7.9h-5.2v-5h5.2v5zm0-7.8h-5.2v-5h5.2v5zm0-7.9h-5.2v-5h5.2v5zm0-7.8h-5.2v-5h5.2v5zm0-7.9h-5.2v-5h5.2v5zm0-7.8h-5.2v-5h5.2v5zm0-7.9h-5.2v-5h5.2v5zm0-7.8h-5.2v-5h5.2v5zm0-7.9h-5.2v-5h5.2v5zm0-7.8h-5.2v-5h5.2v5zm0-7.9h-5.2v-5h5.2v5zm0-7.8h-5.2v-5h5.2v5zm0-7.8h-5.2v-5h5.2v5zm0-7.9h-5.2v-5h5.2v5zm0-7.8h-5.2v-5h5.2v5zm0-7.9h-5.2v-5h5.2v5zm0-7.8h-5.2v-5h5.2v5zm0-7.9h-5.2v-5h5.2v5zm0-7.8h-5.2v-5h5.2v5zm0-7.9h-5.2v-5h5.2v5zm0-7.8h-5.2v-5h5.2v5zm0-7.9h-5.2v-5h5.2v5zm0-7.8h-5.2v-5h5.2v5z" fill="#BCB7B0"/><path d="M283.3 259.7h12.8v12.8h-12.8zm8.1 18.6h12.8v12.8h-12.8zm52.4-18.6h12.8v12.8h-12.8zm-8 18.6h12.8v12.8h-12.8z" fill="#6FA6B7"/><path d="M322.6 195h5.9v7.5h-5.9zm-11.1 0h5.9v7.5h-5.9z" class="st8"/><path d="M299 256.8l33.9 37.2v12.8h-8v289.5h-9.8V307l-8-.2v-31.4H299z" class="st3"/><path d="M359.5 332.8H385v-7.9h30.4v7.9h25v219.1h-80.9z" class="st11"/><path d="M441.6 553.1h-83.3V331.6h25.9v-9.2h31.5v9.2h25.9v221.5zm-80.9-2.4h78.5V334h-25v-7.9h-28v7.9h-25.5v216.7z" class="st11"/><path d="M385 324.9h30.4v4.7H385z" class="st7"/><path d="M360.9 340.4h23.3v3.1h-23.3zm0 4.1h23.3v3.1h-23.3zm0 4h23.3v3.1h-23.3zm0 4.1h23.3v3.1h-23.3zm0 4h23.3v3.1h-23.3zm0 4h23.3v3.1h-23.3zm0 4.1h23.3v3.1h-23.3zm0 4h23.3v3.1h-23.3zm0 4h23.3v3.1h-23.3zm0 4.1h23.3v3.1h-23.3zm0 4h23.3v3.1h-23.3zm0 4.1h23.3v3.1h-23.3zm0 4h23.3v3.1h-23.3zm0 4h23.3v3.1h-23.3zm0 4.1h23.3v3.1h-23.3zm0 4h23.3v3.1h-23.3zm0 4h23.3v3.1h-23.3zm0 4.1h23.3v3.1h-23.3zm0 4h23.3v3.1h-23.3zm0 4.1h23.3v3.1h-23.3zm0 4h23.3v3.1h-23.3zm0 4h23.3v3.1h-23.3zm0 4.1h23.3v3.1h-23.3zm0 4h23.3v3.1h-23.3zm0 4h23.3v3.1h-23.3zm0 4.1h23.3v3.1h-23.3zm0 4h23.3v3.1h-23.3zm0 4h23.3v3.1h-23.3zm0 4.1h23.3v3.1h-23.3zm0 4h23.3v3.1h-23.3zm0 4.1h23.3v3.1h-23.3zm0 4h23.3v3.1h-23.3zm0 4h23.3v3.1h-23.3zm0 4.1h23.3v3.1h-23.3zm0 4h23.3v3.1h-23.3zm0 4h23.3v3.1h-23.3zm0 4.1h23.3v3.1h-23.3zm0 4h23.3v3.1h-23.3zm0 4.1h23.3v3.1h-23.3zm0 4h23.3v3.1h-23.3zm0 4h23.3v3.1h-23.3zm0 4.1h23.3v3.1h-23.3zm0 4h23.3v3.1h-23.3zm0 4h23.3v3.1h-23.3zm0 4.1h23.3v3.1h-23.3zm0 4h23.3v3.1h-23.3zm0 4.1h23.3v3.1h-23.3zm0 4h23.3v3.1h-23.3zm0 4h23.3v3.1h-23.3zm0 4.1h23.3v3.1h-23.3zm0 4h23.3v3.1h-23.3zm0 4h23.3v3.1h-23.3zm54.8-205.9H439v3.1h-23.3zm0 4.1H439v3.1h-23.3zm0 4H439v3.1h-23.3zm0 4.1H439v3.1h-23.3zm0 4H439v3.1h-23.3zm0 4H439v3.1h-23.3zm0 4.1H439v3.1h-23.3zm0 4H439v3.1h-23.3zm0 4H439v3.1h-23.3zm0 4.1H439v3.1h-23.3zm0 4H439v3.1h-23.3zm0 4.1H439v3.1h-23.3zm0 4H439v3.1h-23.3zm0 4H439v3.1h-23.3zm0 4.1H439v3.1h-23.3zm0 4H439v3.1h-23.3zm0 4H439v3.1h-23.3zm0 4.1H439v3.1h-23.3zm0 4H439v3.1h-23.3zm0 4.1H439v3.1h-23.3zm0 4H439v3.1h-23.3zm0 4H439v3.1h-23.3zm0 4.1H439v3.1h-23.3zm0 4H439v3.1h-23.3zm0 4H439v3.1h-23.3zm0 4.1H439v3.1h-23.3zm0 4H439v3.1h-23.3zm0 4H439v3.1h-23.3zm0 4.1H439v3.1h-23.3zm0 4H439v3.1h-23.3zm0 4.1H439v3.1h-23.3zm0 4H439v3.1h-23.3zm0 4H439v3.1h-23.3zm0 4.1H439v3.1h-23.3zm0 4H439v3.1h-23.3zm0 4H439v3.1h-23.3zm0 4.1H439v3.1h-23.3zm0 4H439v3.1h-23.3zm0 4.1H439v3.1h-23.3zm0 4H439v3.1h-23.3zm0 4H439v3.1h-23.3zm0 4.1H439v3.1h-23.3zm0 4H439v3.1h-23.3zm0 4H439v3.1h-23.3zm0 4.1H439v3.1h-23.3zm0 4H439v3.1h-23.3zm0 4.1H439v3.1h-23.3zm0 4H439v3.1h-23.3zm0 4H439v3.1h-23.3zm0 4.1H439v3.1h-23.3zm0 4H439v3.1h-23.3zm0 4H439v3.1h-23.3zm-29.6-205.9h27.7v3.1h-27.7zm0 4.1h27.7v3.1h-27.7zm0 4h27.7v3.1h-27.7zm0 4.1h27.7v3.1h-27.7zm0 4h27.7v3.1h-27.7zm0 4h27.7v3.1h-27.7zm0 4.1h27.7v3.1h-27.7zm0 4h27.7v3.1h-27.7zm0 4h27.7v3.1h-27.7zm0 4.1h27.7v3.1h-27.7zm0 4h27.7v3.1h-27.7zm0 4.1h27.7v3.1h-27.7zm0 4h27.7v3.1h-27.7zm0 4h27.7v3.1h-27.7zm0 4.1h27.7v3.1h-27.7zm0 4h27.7v3.1h-27.7zm0 4h27.7v3.1h-27.7zm0 4.1h27.7v3.1h-27.7zm0 4h27.7v3.1h-27.7zm0 4.1h27.7v3.1h-27.7zm0 4h27.7v3.1h-27.7zm0 4h27.7v3.1h-27.7zm0 4.1h27.7v3.1h-27.7zm0 4h27.7v3.1h-27.7zm0 4h27.7v3.1h-27.7zm0 4.1h27.7v3.1h-27.7zm0 4h27.7v3.1h-27.7zm0 4h27.7v3.1h-27.7zm0 4.1h27.7v3.1h-27.7zm0 4h27.7v3.1h-27.7zm0 4.1h27.7v3.1h-27.7zm0 4h27.7v3.1h-27.7zm0 4h27.7v3.1h-27.7zm0 4.1h27.7v3.1h-27.7zm0 4h27.7v3.1h-27.7zm0 4h27.7v3.1h-27.7zm0 4.1h27.7v3.1h-27.7zm0 4h27.7v3.1h-27.7zm0 4.1h27.7v3.1h-27.7zm0 4h27.7v3.1h-27.7zm0 4h27.7v3.1h-27.7zm0 4.1h27.7v3.1h-27.7zm0 4h27.7v3.1h-27.7zm0 4h27.7v3.1h-27.7zm0 4.1h27.7v3.1h-27.7zm0 4h27.7v3.1h-27.7zm0 4.1h27.7v3.1h-27.7zm0 4h27.7v3.1h-27.7zm0 4h27.7v3.1h-27.7zm0 4.1h27.7v3.1h-27.7zm0 4h27.7v3.1h-27.7zm0 4h27.7v3.1h-27.7z"/><path d="M361.1 334.3h.4v217.6h-.4zm1.3 0h.4v217.6h-.4zm1.2 0h.4v217.6h-.4zm1.3 0h.4v217.6h-.4zm1.3 0h.4v217.6h-.4zm1.2 0h.4v217.6h-.4zm1.3 0h.4v217.6h-.4zm1.3 0h.4v217.6h-.4zm1.2 0h.4v217.6h-.4zm1.3 0h.4v217.6h-.4zm1.3 0h.4V552h-.4zm1.2 0h.4V552h-.4zm1.3 0h.4V552h-.4zm1.3 0h.4V552h-.4zm1.2 0h.4V552h-.4zm1.3 0h.4V552h-.4zm1.3 0h.4V552h-.4zm1.2 0h.4V552h-.4zm1.3 0h.4V552h-.4zm1.3-9.4h.4V552h-.4zm1.2 0h.4V552h-.4zm1.3 0h.4V552h-.4zm1.3 0h.4V552h-.4zm1.2 0h.4V552h-.4zm1.3 0h.4V552h-.4zm1.3 0h.4V552h-.4zm1.2 0h.4V552h-.4zm1.3 0h.4V552h-.4zm1.3 0h.4V552h-.4zm1.2 0h.4V552h-.4zm1.3 0h.4V552h-.4zm1.3 0h.4V552h-.4zm1.2 0h.4V552h-.4zm1.3 0h.4V552h-.4zm1.3 0h.4V552h-.4zm1.2 0h.4V552h-.4zm1.3 0h.4V552h-.4zm1.3 0h.4V552h-.4zm1.2 0h.4V552h-.4zm1.3 0h.4V552h-.4zm1.3 0h.4V552h-.4zm1.2 0h.4V552h-.4zm1.3 0h.4V552h-.4zm1.3 9.4h.4V552h-.4zm1.2 0h.4V552h-.4zm1.3 0h.4V552h-.4zm1.3 0h.4V552h-.4zm1.2 0h.4V552h-.4zm1.3 0h.4V552h-.4zm1.3 0h.4V552h-.4zm1.2 0h.4v217.8h-.4zm1.3 0h.4v217.8h-.4zm1.3 0h.4v217.8h-.4zm1.2 0h.4v217.8h-.4zm1.3 0h.4v217.8h-.4zm1.3 0h.4v217.8h-.4zm1.2 0h.4v217.8h-.4zm1.3 0h.4v217.8h-.4zm1.3 0h.4v217.8h-.4zm1.2 0h.4v217.8h-.4zm1.3 0h.4v217.8h-.4zm1.3 0h.4v217.8h-.4z" fill="#8fd1dc" opacity=".5"/><path d="M384 552l.4-219.2h1.9l-.5 219.2zm29.7-219.2h1.9v219.3h-1.9z" class="st11"/><path d="M415.6 331.6l26 61.3v160.2h-26z" class="st13"/><path fill="#fff" d="M358.3 331.6h25.9v221.5h-25.9z" opacity=".1"/><path d="M415.6 331.6l26 61.3v-61.3z" class="st15"/><path fill="#a5a5a5" d="M420.2 331.6h-4.5v-9.2h-31.5v9.2h-25.9v2.7h83.3v-2.7h-21.4zm-6.8-2h-27v-4.7h27v4.7z"/><path d="M480.1 383.7v-1.3h-6v-89.2h-2.3v89.2h-4.1v1.3h-11.3v3h27.2v-3z" fill="#3a7999"/><path fill="#3a7999" stroke="#3a7999" stroke-miterlimit="10" stroke-width="4" d="M429.1 386.7h65.5v193.5h-65.5z"/><path d="M429.1 386.7h65.5v4.5h-65.5zm0 9.1h65.5v4.5h-65.5zm0 9.1h65.5v4.5h-65.5zm0 9.1h65.5v4.5h-65.5zm0 9.1h65.5v4.5h-65.5zm0 9.1h65.5v4.5h-65.5zm0 9.1h65.5v4.5h-65.5zm0 9.1h65.5v4.5h-65.5zm0 9.1h65.5v4.5h-65.5zm0 9.1h65.5v4.5h-65.5zm0 9.1h65.5v4.5h-65.5zm0 9.1h65.5v4.5h-65.5zm0 9.1h65.5v4.5h-65.5zm0 9.1h65.5v4.5h-65.5zm0 9.1h65.5v4.5h-65.5zm0 9.1h65.5v4.5h-65.5zm0 9.1h65.5v4.5h-65.5zm0 9.1h65.5v4.5h-65.5zm0 9.1h65.5v4.5h-65.5zm0 9.1h65.5v4.5h-65.5zm0 9.1h65.5v4.5h-65.5z" fill="#36617a"/><path d="M429.1 391.2h65.5v4.5h-65.5zm0 9.1h65.5v4.5h-65.5zm0 9.1h65.5v4.5h-65.5zm0 9.1h65.5v4.5h-65.5zm0 9.1h65.5v4.5h-65.5zm0 9.1h65.5v4.5h-65.5zm0 9.1h65.5v4.5h-65.5zm0 9.1h65.5v4.5h-65.5zm0 9.1h65.5v4.5h-65.5zm0 9.1h65.5v4.5h-65.5zm0 9.1h65.5v4.5h-65.5zm0 9.1h65.5v4.5h-65.5zm0 9.1h65.5v4.5h-65.5zm0 9.1h65.5v4.5h-65.5zm0 9.1h65.5v4.5h-65.5zm0 9.1h65.5v4.5h-65.5zm0 9.1h65.5v4.5h-65.5zm0 9.1h65.5v4.5h-65.5zm0 9.1h65.5v4.5h-65.5zm0 9.1h65.5v4.5h-65.5zm0 9.1h65.5v4.5h-65.5z"/><path d="M429 386.7h.4v191.1h-.4zm1.8 0h.4v191.1h-.4zm1.8 0h.4v191.1h-.4zm1.8 0h.4v191.1h-.4zm1.8 0h.4v191.1h-.4zm1.9 0h.4v191.1h-.4zm1.8 0h.4v191.1h-.4zm1.8 0h.4v191.1h-.4zm1.8 0h.4v191.1h-.4zm1.8 0h.4v191.1h-.4zm1.9 0h.4v191.1h-.4zm1.8 0h.4v191.1h-.4zm1.8 0h.4v191.1h-.4zm1.8 0h.4v191.1h-.4zm1.8 0h.4v191.1h-.4zm1.9 0h.4v191.1h-.4zm1.8 0h.4v191.1h-.4zm1.8 0h.4v191.1h-.4zm1.8 0h.4v191.1h-.4zm1.8 0h.4v191.1h-.4zm1.8 0h.4v191.1h-.4zm1.9 0h.4v191.1h-.4zm1.8 0h.4v191.1h-.4zm1.8 0h.4v191.1h-.4zm1.8 0h.4v191.1h-.4zm1.8 0h.4v191.1h-.4zm1.9 0h.4v191.1h-.4zm1.8 0h.4v191.1h-.4zm1.8 0h.4v191.1h-.4zm1.8 0h.4v191.1h-.4zm1.8 0h.4v191.1h-.4zm1.9 0h.4v191.1h-.4zm1.8 0h.4v191.1h-.4zm1.8 0h.4v191.1h-.4zm1.8 0h.4v191.1h-.4zm1.8 0h.4v191.1h-.4zm1.9 0h.4v191.1h-.4z" fill="#fff" opacity=".5"/><path d="M429.1 386.7h65.5v4.5h-65.5zm0 4.5h65.5v4.5h-65.5zm0 4.6h65.5v4.5h-65.5zm0 4.5h65.5v4.5h-65.5zm0 4.6h65.5v4.5h-65.5zm0 4.5h65.5v4.5h-65.5zm0 4.6h65.5v4.5h-65.5zm0 4.5h65.5v4.5h-65.5zm0 4.6h65.5v4.5h-65.5zm0 4.5h65.5v4.5h-65.5zm0 4.6h65.5v4.5h-65.5zm0 4.5h65.5v4.5h-65.5zm0 4.6h65.5v4.5h-65.5zm0 4.5h65.5v4.5h-65.5zm0 4.6h65.5v4.5h-65.5zm0 4.5h65.5v4.5h-65.5zm0 4.6h65.5v4.5h-65.5zm0 4.5h65.5v4.5h-65.5zm0 4.6h65.5v4.5h-65.5zm0 4.5h65.5v4.5h-65.5zm0 4.6h65.5v4.5h-65.5zm0 4.5h65.5v4.5h-65.5zm0 4.6h65.5v4.5h-65.5zm0 4.5h65.5v4.5h-65.5zm0 4.6h65.5v4.5h-65.5zm0 4.5h65.5v4.5h-65.5zm0 4.6h65.5v4.5h-65.5zm0 4.5h65.5v4.5h-65.5zm0 4.6h65.5v4.5h-65.5zm0 4.5h65.5v4.5h-65.5zm0 4.6h65.5v4.5h-65.5zm0 4.5h65.5v4.5h-65.5zm0 4.6h65.5v4.5h-65.5zm0 4.5h65.5v4.5h-65.5zm0 4.6h65.5v4.5h-65.5zm0 4.5h65.5v4.5h-65.5zm0 4.6h65.5v4.5h-65.5zm0 4.5h65.5v4.5h-65.5zm0 4.6h65.5v4.5h-65.5zm0 4.5h65.5v4.5h-65.5zm0 4.6h65.5v4.5h-65.5zm0 4.5h65.5v4.5h-65.5z" fill="none" stroke="#fff" stroke-miterlimit="10" opacity=".8"/><path d="M441.6 385.8H470l27 63.7-.2 133.9h-55.2z" class="st13"/><path d="M470 385.8h26.9l.1 63.7z" class="st15"/><path fill="#c32327" d="M471.8 290.9h2.3v2.3h-2.3z"/><path d="M274.8 397v201.2h33.4c-35.4-84.4 15-194.4 15-194.4h2.7V397h-51.1z" class="st25"/><path d="M241.4 397v6.8h2.7c8.4 15.7 7.9 34.5 4.3 51.5-8.5 39.5-38.6 67.2-68.4 91.8a508.7 508.7 0 0 1-66.1 46.1c-1.3.7-4.3 5-5.8 5h166.8V397h-33.5z" class="st26"/><path d="M280.2 469.9h17.7s3.4-25.2 8.8-36.1h-23.1l-3.4 36.1z" fill="#354143"/><path d="M296.5 437.2l132.8 117m-16.9-5.2L295.7 432.8m74.5 113.5l-71.4-113.5m94.9 114.6l-92.8-114.9m65.3 114.9l-77.6-113.6m91.3 109l-87.4-110m-3 0L351 547.4m-19.3 1.9l-43.1-116.5m-4.3 0l62.4 118m-22.5 4.7l-32.9-122.7" fill="none" stroke="#b5d9d6" stroke-miterlimit="10"/><path d="M189.9 559h70.6v-13.6h-55.4c-5.1 4.7-10.2 9.3-15.2 13.6zm22.3-20.4h48.2V525h-34.9c-4.1 4.6-8.6 9.2-13.3 13.6zm-47.1 40.9h95.3v-13.6h-78.6c-5.9 5-11.6 9.5-16.7 13.6zm66.6-61.3h28.7v-13.6h-17.8c-3.2 4.5-6.9 9-10.9 13.6zm-89 80h117.8v-12H156.4c-8.4 6.5-13.7 12-13.7 12zm108.9-107.9c-1.3 2.5-2.7 5-4.3 7.5h13.2v-7.5h-8.9z" fill="#675125"/><path d="M156.4 586.3h104.1v-6.8h-95.3l-8.8 6.8zm25.5-20.4h78.6V559h-70.6l-8 6.9zm23.2-20.5h55.4v-6.8h-48.2l-7.2 6.8zm20.5-20.4h34.9v-6.8h-28.7l-6.2 6.8zm17.1-20.4h17.8v-6.8h-13.2l-4.6 6.8z"/><path d="M289.4 423.2h-9.6l1.5-8.1h9.5zm11 0h-9.5l1.4-8.1h9.6zm11.1 0H302l1.4-8.1h9.5z" fill="#7F827F"/><path d="M261.2 422.2h13.6v2h-13.6zm-3.4-4.1h17v2h-17zm-3.5-4h20.4v2h-20.4z" fill="#BDC0BA"/><path fill="#010101" d="M301.7 579.6c-9.1-33.5-7-69.4-1.5-99.9l-25.5 31.8-69.7 86.8h97l-.3-18.7z" opacity=".1"/><path d="M283.6 431h24.2v2.8h-24.2z" class="st25"/><path fill="#010101" d="M325.8 403.8V397h-51.1l34 47.1c7.1-24.3 14.4-40.3 14.4-40.3h2.7z" opacity=".1"/><g class="st26"><path d="M495.9 574.3c-79-19-77.9-23.6-121.8-23.9-46.4-.3-47.2 4.2-123.7 23.9h-9.1c0 16.3 16.1 23.9 16.1 23.9h233.4s14.2-7.6 14.2-23.9h-9.1z"/><path fill="#AEC8CE" d="M256.7 595.4s-11.4-12.8 1.1-21.1H488s14 7.3 2.2 21.1H256.7z"/><path fill="#7E92A5" d="M300.1 558.9s-24.5 4.7-34.9 10.8h216.1s-26.9-11.4-40.2-11.5l-141 .7z"/><path d="M257.8 574.3s-1.7-1.5 8.6-5.3l214.8.7s4.2.8 6.7 4.6H257.8z" class="st25"/><path d="M255.4 594.4v1.4c2.4 1.3 1.9 2.4 1.9 2.4h232.8s-1.6-.9 1.4-3.8H255.4zm237-18.1H256.9l3.5-4h226.1z"/><path d="M373 558.1h.9v37.3h-.9zm12.4 37.3h-.9c0-30.9-7-36.6-7-36.7l.4-1.2c.3.2 7.5 6 7.5 37.9zm12 0h-.9c0-32.1-13.2-36.4-13.8-36.6l.2-1.3c.2 0 14.5 4.6 14.5 37.9zm23.8 0h-.9c0-28.9-24.3-36.5-24.6-36.6l.2-1.3c.3.1 25.3 7.9 25.3 37.9zm20.4.5l-.6-1c2.6-4.1 3.5-8.1 2.8-11.8-3.4-16.1-36.4-24.1-36.8-24.2l.1-1.3c1.4.3 33.9 8.2 37.4 25.1 1 4.3 0 8.7-2.9 13.2z"/><path d="M470.1 595.9l-.6-1c2.6-4 3.4-7.8 2.6-11.3-4.4-18.5-53.3-24.6-53.8-24.7l.1-1.3c2 .2 50 6.2 54.5 25.5 1 4.1 0 8.3-2.8 12.8z"/><path d="M490.7 596.5l-1-2.2c3.6-4.1 5.1-7.9 4.3-11.2-3.5-16.1-49.9-23.4-52.8-23.4h-.1v-1l-.3-1.6c1.6 0 49.2 6.3 54.5 24.3 1.6 4.8 0 9.9-4.6 15.1zm-128.3-1.1h-.9c0-31.9 7.2-37.7 7.5-37.9l.4 1.2c-.1.1-7 5.8-7 36.7zm-12 0h-.9c0-33.3 14.3-37.9 14.5-37.9l.2 1.3c-.6.1-13.8 4.5-13.8 36.6zm-23.9 0h-.9c0-30 25-37.8 25.3-37.9l.2 1.3c-.2.1-24.6 7.7-24.6 36.6zm-21.2.5a17.3 17.3 0 0 1-3-13.2c3.5-16.9 36.1-24.7 37.4-25.1l.1 1.3c-.3.1-33.4 8.1-36.8 24.2-.8 3.7.2 7.7 2.8 11.8l-.5 1z"/><path d="M276.8 595.9c-2.8-4.4-3.8-8.7-2.8-12.7 4.5-19.3 52.5-25.3 54.5-25.5l.1 1.3c-.5.1-49.4 6.2-53.8 24.7-.8 3.5.1 7.3 2.6 11.3l-.6.9z"/><path d="M256.2 596.5c-4.6-5.2-6.2-10.4-4.8-15.3 5.3-18 52.2-24.5 53.7-24.5l-.1 1.3-.1 1.3c-2.8 0-48.6 7.5-52 23.6-.7 3.4.7 7.3 4.4 11.4l-1.1 2.2z"/><path d="M252.2 585.2h242.4v1.3H252.2z"/><path fill="#E7E8E6" d="M446.8 559.8s-13-17.7-73.3-17.7-73.3 17.7-73.3 17.7h146.6z"/></g></svg>