<svg id="Layer_1" xmlns="http://www.w3.org/2000/svg" xmlns:xlink="http://www.w3.org/1999/xlink" viewBox="0 0 659 207"><style>.st2{fill:#575149}</style><path d="M329.3 173.6l-11.4-36.1h-41.3l-11.7 36.1h-14.7L291 53.2h14.4L346 173.6h-16.7zm-28-91.4c-3-9.5-3.5-14.5-3.5-14.5h-.4s-.7 5.1-3.7 14.5l-14.4 45.7h35.9l-13.9-45.7zm61.4-46h15.4v137.4h-15.4zm70.2 138.3c-17.2 0-23.5-12.3-23.5-23.8V88.9h-10.9v-9.6h10.9V57.5l15.4-4.7v26.4h16.4v9.6h-16.4v61.4c0 7.5 3.3 13.7 11.9 13.7 1.6 0 3-.3 4.6-.7v9.8c-1.7.6-4.5 1.5-8.4 1.5m58.7.8c-24.5 0-35.9-10.7-35.9-27.8 0-25 23.5-32.4 52.7-35.4v-5.8c0-14.5-8.8-18.7-20.8-18.7-9.1 0-17.5 3.3-22.8 6l-3.7-9.1c5.4-3 15.9-7 28.9-7 17.5 0 32.9 7.5 32.9 30.6v60.6c-7.2 4-18.2 6.6-31.3 6.6m16.8-55.3c-23.8 3-38 8.1-38 27.1 0 13.7 8.4 19.3 22.4 19.3 5.9 0 11.7-1 15.6-3.1V120zm48.1-59c-5.1 0-9.1-3.9-9.1-8.4 0-4.7 4-8.6 9.1-8.6 4.9 0 8.9 3.8 8.9 8.6.1 4.6-4 8.4-8.9 8.4m-7.7 18.2h15.4v94.4h-15.4V79.2zm78.1 10.2c-7.7-2.3-16.5-1.6-21.5 1.8v82.5H590V84.3c9.3-4.7 18.2-7.2 40.6-6.6l-3.7 11.7z" fill="#4c4c4e"/><path d="M132.9 30.7h-34c-5.9 0-7.6 5.6-7.6 5.6s-19.8 52.5-25.4 64.1l17.8-19.3 31.2-34.2 8.4-9.2c3.3-3.6 5.1-5.2 6.7-6.1 1.3-.7 2.3-.9 2.9-.9" fill="#d41f35"/><path class="st2" d="M160.1 106.7l-2.6-8.3 2.5 8z"/><path class="st2" d="M160 106.4l.1.3-2.6-8.3z"/><path class="st2" d="M160 106.4l.1.3-2.6-8.3z"/><path d="M194.4 134.7l-42.4-54 5.5 17.6 2.6 8.4 17.8 55.9c1.5 4.6 1.9 7 1.9 8.9 0 1.5-.3 2.4-.6 3l.1-.2.2-.4 16-29.9c2.6-4.9-1.1-9.3-1.1-9.3" fill="#07a9e0"/><defs><path id="SVGID_1_" d="M127.2 31.7c-1.6.9-3.4 2.5-6.7 6.1l-8.4 9.2 33.1 38.4s6.8 7.8 10.9 18.5c.4 1 .9 2 1.2 3v-.1l-.1-.3-2.5-8-5.5-17.6-13.8-43.4s-2.1-6.6-5.2-6.6c-.6-.2-1.7 0-3 .8"/></defs><clipPath id="SVGID_2_"><use xlink:href="#SVGID_1_" overflow="visible"/></clipPath><linearGradient id="SVGID_3_" gradientUnits="userSpaceOnUse" x1="-1134.16" y1="-2461.742" x2="-1133.611" y2="-2461.742" gradientTransform="rotate(59.105 -268193.022 -22473.82) scale(97.961)"><stop offset="0" stop-color="#d1d4d4"/><stop offset=".135" stop-color="#e1e3e4"/><stop offset=".295" stop-color="#f1f0f2"/><stop offset=".717" stop-color="#f1f0f2"/><stop offset=".859" stop-color="#dbdcde"/><stop offset="1" stop-color="#c6c6c8"/></linearGradient><path clip-path="url(#SVGID_2_)" fill="url(#SVGID_3_)" d="M145.4 10.8l45.5 75.9-66.8 40-45.5-75.9z"/><defs><path id="SVGID_4_" d="M81 81.1l-9.4 10.2-39.7 43.5s-4.5 5.1-3.1 7.8l.2.4c.3.5.9 1.1 2 1.8 1.6 1 3.8 1.8 8.6 2.8l12.2 2.7 16.8-48s3.4-9.8 10.5-18.7c.6-.8 1.2-1.7 1.9-2.5z"/></defs><clipPath id="SVGID_5_"><use xlink:href="#SVGID_4_" overflow="visible"/></clipPath><linearGradient id="SVGID_6_" gradientUnits="userSpaceOnUse" x1="-1139.318" y1="-2464.514" x2="-1138.769" y2="-2464.514" gradientTransform="rotate(111.877 -167769.348 -101250.693) scale(119.6013)"><stop offset="0" stop-color="#d1d4d4"/><stop offset=".135" stop-color="#e1e3e4"/><stop offset=".295" stop-color="#f1f0f2"/><stop offset=".717" stop-color="#f1f0f2"/><stop offset=".859" stop-color="#dbdcde"/><stop offset="1" stop-color="#c6c6c8"/></linearGradient><path clip-path="url(#SVGID_5_)" fill="url(#SVGID_6_)" d="M104.9 90.7l-31.4 78.2-70.2-28.2 31.4-78.2z"/><defs><path id="SVGID_7_" d="M121.4 160.4s-10.2 2.1-21.5.3c-1-.2-2-.3-3-.5l2.3.5 20.2 4.5 3.1.7 45.4 10s6.2 1.5 8.3-1.2l.1-.2c.2-.6.6-1.5.6-3 0-1.9-.4-4.2-1.9-8.9l-2.2-7-1.5-4.7-49.9 9.5z"/></defs><clipPath id="SVGID_8_"><use xlink:href="#SVGID_7_" overflow="visible"/></clipPath><linearGradient id="SVGID_9_" gradientUnits="userSpaceOnUse" x1="-1136.295" y1="-2457.359" x2="-1135.746" y2="-2457.359" gradientTransform="translate(165854.453 358632.281) scale(145.8754)"><stop offset="0" stop-color="#d1d4d4"/><stop offset=".135" stop-color="#e1e3e4"/><stop offset=".295" stop-color="#f1f0f2"/><stop offset=".717" stop-color="#f1f0f2"/><stop offset=".859" stop-color="#dbdcde"/><stop offset="1" stop-color="#c6c6c8"/></linearGradient><path clip-path="url(#SVGID_8_)" fill="url(#SVGID_9_)" d="M97 150.9h80v26.4H97z"/><g><path d="M119.5 165.3l-20.2-4.5-2.3-.5-57.5-12.6c-4.8-1-7-1.9-8.6-2.8-1.1-.7-1.7-1.3-2-1.8.5.8 17.9 29.1 17.9 29.1 2.8 4.8 8.6 3.8 8.6 3.8l67.1-9.9-3-.8z" fill="#ffc945"/></g></svg>