<svg xmlns="http://www.w3.org/2000/svg" width="207" height="61"><g fill="none" fill-rule="evenodd"><path fill="#044e87" d="M167.5 28.182c5.777-1.175 7.688-5.396 7.688-9.573 0-5.265-3.777-10.05-10.944-10.095-4.822 0-9.643-.042-14.464-.042v30.5h5.733V13.866h8.731c3.605 0 5.21 2.437 5.21 4.874 0 2.436-1.562 4.873-5.21 4.873l-3.594-.038v4.756l9.237 10.641h6.82v-.392zM4.64 8.472l20.603 25.914v4.544h-3.557v.042l-15.96-20.58V38.93H0V8.472zm66.493 18.74L58.902 8.733v-.26h7.138l8.095 12.59 8.459-12.59h6.601v.26l-12.058 18.48v11.76h-6.003zm27.297 6.445h16.008v5.315H92.561v-30.5h5.87zm23.17-8.822c.126 5.071 2.738 10.496 9.69 10.496 6.951 0 9.562-5.468 9.648-10.543.082-5.201-2.697-11.022-9.649-11.022-6.951 0-9.816 5.865-9.689 11.069m24.813-.133c-.084 7.983-4.761 15.965-15.124 15.965-10.365 0-15.168-7.806-15.168-15.92s4.973-16.275 15.168-16.275c10.152 0 15.21 8.16 15.124 16.23M20.195 18.744V8.472h5.049v18.64m16.299.545l5.58-12.78 10.551 24.095h6.277l-13.69-30.5h-6.278l-13.69 30.5h6.234l2.53-5.563H49.61l-2.486-5.752z"/><path fill="#4ec0e0" d="M181.756 17.233v4.782l14.619-8.867 3.535 2.03-18.154 10.506V30.5L207 15.178 181.756 0v4.782l3.426 1.964-3.426 1.963v4.782l7.416-4.458 3.475 1.972z"/><path fill="#939598" d="M4.256 53.82h-.024l-1.788 4.165h3.514zm-.462-1.292h.96L8.415 61H7.224l-.876-2.082H2.043L1.155 61H0zm11.868 1.628a1.722 1.722 0 0 0-.808-.563 3.152 3.152 0 0 0-1.052-.177c-.269 0-.533.027-.793.08a2.71 2.71 0 0 0-.699.239 1.369 1.369 0 0 0-.497.421 1.03 1.03 0 0 0-.187.615c0 .182.036.344.108.484.072.14.19.268.353.382.163.113.384.22.663.318.279.1.62.198 1.023.296.394.1.776.205 1.146.32.37.113.697.257.98.432.284.175.51.393.678.655.168.262.252.59.252.985 0 .402-.1.751-.302 1.047-.202.297-.469.541-.8.735a3.927 3.927 0 0 1-1.146.433 6.432 6.432 0 0 1-2.234.08 5.191 5.191 0 0 1-.858-.194 3.823 3.823 0 0 1-.772-.342 2.365 2.365 0 0 1-.62-.518l1.038-.672c.221.296.529.52.923.672a3.499 3.499 0 0 0 2.04.137c.264-.061.502-.15.713-.268.212-.118.385-.264.52-.438a.962.962 0 0 0 .2-.604c0-.25-.052-.453-.158-.61a1.287 1.287 0 0 0-.49-.403 4.304 4.304 0 0 0-.836-.308l-1.182-.319a8.76 8.76 0 0 1-1.009-.313 3.233 3.233 0 0 1-.8-.433 1.904 1.904 0 0 1-.533-.614 1.779 1.779 0 0 1-.195-.86c0-.387.096-.724.288-1.014.193-.288.452-.53.779-.723.327-.193.697-.34 1.11-.438a5.567 5.567 0 0 1 1.297-.148c.577 0 1.103.07 1.579.21.475.141.9.386 1.275.735zm8.414 0a1.722 1.722 0 0 0-.807-.563 3.152 3.152 0 0 0-1.052-.177c-.27 0-.534.027-.793.08a2.71 2.71 0 0 0-.7.239 1.369 1.369 0 0 0-.496.421 1.03 1.03 0 0 0-.188.615c0 .182.036.344.108.484.072.14.19.268.353.382.164.113.385.22.664.318.278.1.62.198 1.023.296.394.1.776.205 1.146.32.37.113.697.257.98.432.284.175.51.393.678.655.168.262.252.59.252.985 0 .402-.101.751-.303 1.047-.202.297-.468.541-.8.735a3.927 3.927 0 0 1-1.146.433 6.432 6.432 0 0 1-2.234.08 5.191 5.191 0 0 1-.858-.194 3.823 3.823 0 0 1-.771-.342 2.365 2.365 0 0 1-.62-.518l1.038-.672c.221.296.529.52.923.672a3.499 3.499 0 0 0 2.04.137c.264-.061.501-.15.713-.268.211-.118.384-.264.519-.438a.962.962 0 0 0 .202-.604c0-.25-.053-.453-.159-.61a1.287 1.287 0 0 0-.49-.403 4.304 4.304 0 0 0-.836-.308l-1.182-.319a8.76 8.76 0 0 1-1.01-.313 3.233 3.233 0 0 1-.8-.433 1.904 1.904 0 0 1-.533-.614 1.779 1.779 0 0 1-.194-.86c0-.387.096-.724.288-1.014.192-.288.452-.53.779-.723.326-.193.696-.34 1.11-.438a5.567 5.567 0 0 1 1.297-.148c.576 0 1.103.07 1.578.21.476.141.901.386 1.276.735zm7.058 5.956c.47 0 .9-.088 1.29-.262.391-.175.727-.414 1.007-.717.28-.304.499-.659.654-1.065.155-.406.233-.84.233-1.304 0-.463-.078-.898-.233-1.304a3.288 3.288 0 0 0-.654-1.065 3.053 3.053 0 0 0-2.297-.979 3.053 3.053 0 0 0-2.297.979c-.28.304-.498.659-.654 1.065a3.621 3.621 0 0 0-.233 1.304c0 .463.078.898.233 1.304.156.406.374.761.654 1.065.28.303.616.542 1.007.717.39.174.82.262 1.29.262m0 .888c-.614 0-1.177-.107-1.688-.319s-.956-.506-1.33-.882a3.97 3.97 0 0 1-.876-1.344 4.506 4.506 0 0 1-.313-1.691 4.5 4.5 0 0 1 .313-1.691c.208-.52.5-.968.875-1.344.375-.376.819-.67 1.33-.883a4.36 4.36 0 0 1 1.69-.318 4.36 4.36 0 0 1 1.688.318c.511.213.955.507 1.33.883.375.376.667.823.876 1.344a4.5 4.5 0 0 1 .312 1.69c0 .608-.104 1.172-.312 1.692-.209.52-.5.968-.876 1.344-.375.376-.819.67-1.33.882a4.368 4.368 0 0 1-1.689.319m13.009-6.552a2.525 2.525 0 0 0-.997-.729 3.234 3.234 0 0 0-1.237-.242 3.404 3.404 0 0 0-2.449 1 3.285 3.285 0 0 0-.707 1.06 3.238 3.238 0 0 0-.252 1.26c0 .467.084.902.252 1.306.168.402.402.752.7 1.05.3.298.657.533 1.074.706.416.173.877.26 1.382.26.547 0 1.035-.096 1.464-.288.429-.193.803-.47 1.123-.83l.795.598a3.62 3.62 0 0 1-1.457 1.062c-.568.226-1.21.339-1.925.339-.64 0-1.237-.106-1.793-.317a4.46 4.46 0 0 1-1.445-.875 4.02 4.02 0 0 1-.96-1.327 4.04 4.04 0 0 1-.346-1.684c0-.587.111-1.137.334-1.649.223-.512.537-.956.94-1.333a4.498 4.498 0 0 1 1.44-.892 4.96 4.96 0 0 1 1.83-.328c.606 0 1.188.098 1.748.294.56.196 1.028.516 1.407.96zm2.979-1.92V61h1.683v-8.472zm7.622 1.292h-.025l-1.787 4.165h3.514zm-.462-1.292h.96L58.902 61H57.71l-.875-2.082h-4.304L51.643 61h-1.155zm11.352 0v.933H62.78V61h-1.024v-7.539h-2.854v-.933zm1.683 0V61H69v-8.472zm7.574 7.584a3.056 3.056 0 0 0 2.297-.979c.28-.304.498-.659.654-1.065.155-.406.233-.84.233-1.304 0-.463-.078-.898-.233-1.304a3.304 3.304 0 0 0-.654-1.065 3.058 3.058 0 0 0-2.297-.979 3.058 3.058 0 0 0-2.297.979c-.28.304-.499.659-.655 1.065a3.621 3.621 0 0 0-.233 1.304c0 .463.078.898.233 1.304.156.406.374.761.654 1.065a3.056 3.056 0 0 0 2.298.979m0 .888a4.367 4.367 0 0 1-1.689-.319 4.05 4.05 0 0 1-1.33-.882 3.984 3.984 0 0 1-.876-1.344 4.515 4.515 0 0 1-.313-1.691c0-.608.105-1.17.313-1.691.209-.52.5-.968.875-1.344.376-.376.819-.67 1.331-.883a4.358 4.358 0 0 1 1.689-.318c.613 0 1.176.106 1.688.318a3.961 3.961 0 0 1 2.206 2.227 4.5 4.5 0 0 1 .313 1.69c0 .608-.104 1.172-.313 1.692-.209.52-.5.968-.876 1.344-.374.376-.818.67-1.33.882A4.368 4.368 0 0 1 74.89 61m14.505 0l-5.73-7.036h-.028V61h-1.175v-8.472h1.482l5.731 7.036h.028v-7.036h1.174V61zm15.461-6.844a1.724 1.724 0 0 0-.808-.563 3.147 3.147 0 0 0-1.052-.177c-.27 0-.532.027-.792.08a2.71 2.71 0 0 0-.7.239 1.357 1.357 0 0 0-.496.421 1.03 1.03 0 0 0-.188.615c0 .182.036.344.109.484.071.14.188.268.353.382.162.113.384.22.662.318.278.1.62.198 1.023.296.395.1.776.205 1.147.32.37.113.697.257.98.432.283.175.509.393.677.655.169.262.252.59.252.985 0 .402-.1.751-.302 1.047-.202.297-.469.541-.8.735-.33.194-.713.338-1.147.433a6.448 6.448 0 0 1-2.234.08 5.164 5.164 0 0 1-.857-.194 3.809 3.809 0 0 1-.77-.342 2.368 2.368 0 0 1-.621-.518l1.038-.672c.22.296.528.52.922.672a3.5 3.5 0 0 0 2.04.137c.264-.061.502-.15.714-.268a1.66 1.66 0 0 0 .518-.438.958.958 0 0 0 .202-.604c0-.25-.053-.453-.157-.61a1.297 1.297 0 0 0-.492-.403c-.22-.114-.5-.217-.835-.308l-1.182-.319a8.736 8.736 0 0 1-1.01-.313 3.212 3.212 0 0 1-.8-.433 1.911 1.911 0 0 1-.533-.614 1.786 1.786 0 0 1-.194-.86c0-.387.095-.724.288-1.014.192-.288.452-.53.778-.723.326-.193.698-.34 1.11-.438a5.567 5.567 0 0 1 1.297-.148c.577 0 1.103.07 1.579.21.475.141.9.386 1.275.735zm7.058 5.956a3.061 3.061 0 0 0 2.297-.979c.28-.304.498-.659.654-1.065.155-.406.233-.84.233-1.304 0-.463-.078-.898-.233-1.304a3.33 3.33 0 0 0-.654-1.065 3.062 3.062 0 0 0-2.297-.979 3.053 3.053 0 0 0-2.297.979c-.28.304-.498.659-.654 1.065a3.622 3.622 0 0 0-.233 1.304c0 .463.077.898.233 1.304a3.3 3.3 0 0 0 .654 1.065c.28.303.615.542 1.006.717.39.174.82.262 1.29.262m0 .888a4.364 4.364 0 0 1-1.687-.319 4.04 4.04 0 0 1-1.331-.882 3.978 3.978 0 0 1-.876-1.344 4.515 4.515 0 0 1-.313-1.691c0-.608.105-1.17.313-1.691.209-.52.5-.968.876-1.344.375-.376.818-.67 1.33-.883a4.355 4.355 0 0 1 1.689-.318c.614 0 1.176.106 1.688.318.513.213.955.507 1.33.883.375.376.667.823.876 1.344a4.51 4.51 0 0 1 .313 1.69c0 .608-.105 1.172-.313 1.692-.209.52-.5.968-.876 1.344-.375.376-.817.67-1.33.882a4.365 4.365 0 0 1-1.688.319m8.613-8.472v7.539h4.009V61h-5.05v-8.472zm14.106 5.112c0 .45-.06.879-.184 1.283-.121.405-.314.76-.579 1.068a2.784 2.784 0 0 1-1.04.735c-.428.183-.95.274-1.563.274s-1.134-.09-1.564-.274a2.793 2.793 0 0 1-1.039-.735 2.915 2.915 0 0 1-.58-1.068 4.463 4.463 0 0 1-.183-1.283v-5.112h1.058V57.5c0 .334.039.656.115.968.075.311.202.587.378.828s.411.434.705.578c.294.144.664.216 1.11.216.445 0 .815-.072 1.109-.216.295-.144.53-.337.707-.578.176-.241.302-.517.378-.828a4.14 4.14 0 0 0 .112-.968v-4.972h1.06zm8.415-5.112v.933h-2.853V61h-1.026v-7.539h-2.853v-.933zm1.683 0V61h1.683v-8.472zm9.256 7.584a3.061 3.061 0 0 0 2.297-.979c.28-.304.498-.659.654-1.065.155-.406.233-.84.233-1.304 0-.463-.078-.898-.233-1.304a3.33 3.33 0 0 0-.654-1.065 3.062 3.062 0 0 0-2.297-.979 3.053 3.053 0 0 0-2.297.979c-.28.304-.498.659-.654 1.065a3.622 3.622 0 0 0-.233 1.304c0 .463.078.898.233 1.304a3.3 3.3 0 0 0 .654 1.065c.28.303.616.542 1.006.717.39.174.821.262 1.291.262m0 .888a4.364 4.364 0 0 1-1.688-.319 4.04 4.04 0 0 1-1.33-.882 3.978 3.978 0 0 1-.877-1.344 4.515 4.515 0 0 1-.313-1.691c0-.608.105-1.17.313-1.691.21-.52.501-.968.876-1.344.375-.376.818-.67 1.331-.883a4.355 4.355 0 0 1 1.688-.318c.614 0 1.176.106 1.688.318.513.213.955.507 1.33.883.376.376.668.823.876 1.344a4.51 4.51 0 0 1 .313 1.69c0 .608-.105 1.172-.313 1.692-.208.52-.5.968-.876 1.344-.375.376-.817.67-1.33.882a4.365 4.365 0 0 1-1.688.319m12.823 0l-5.731-7.036h-.027V61h-1.175v-8.472h1.482l5.732 7.036h.028v-7.036h1.173V61zm10.412-6.844a1.72 1.72 0 0 0-.808-.563 3.147 3.147 0 0 0-1.052-.177c-.269 0-.532.027-.793.08-.26.053-.492.133-.698.239a1.364 1.364 0 0 0-.498.421 1.03 1.03 0 0 0-.188.615c0 .182.037.344.11.484.07.14.188.268.352.382.163.113.384.22.663.318.279.1.62.198 1.023.296.395.1.776.205 1.147.32.37.113.697.257.98.432.283.175.509.393.677.655.169.262.252.59.252.985 0 .402-.1.751-.302 1.047-.202.297-.469.541-.8.735-.33.194-.713.338-1.146.433a6.447 6.447 0 0 1-2.234.08 5.184 5.184 0 0 1-.858-.194 3.803 3.803 0 0 1-.77-.342 2.351 2.351 0 0 1-.621-.518l1.038-.672c.22.296.529.52.922.672a3.494 3.494 0 0 0 2.04.137c.265-.061.502-.15.713-.268.212-.118.385-.264.52-.438a.958.958 0 0 0 .2-.604c0-.25-.052-.453-.157-.61a1.29 1.29 0 0 0-.49-.403 4.29 4.29 0 0 0-.837-.308l-1.181-.319a8.77 8.77 0 0 1-1.01-.313 3.233 3.233 0 0 1-.8-.433 1.904 1.904 0 0 1-.533-.614 1.786 1.786 0 0 1-.195-.86c0-.387.096-.724.29-1.014.191-.288.451-.53.777-.723.327-.193.697-.34 1.11-.438a5.571 5.571 0 0 1 1.297-.148c.577 0 1.103.07 1.579.21.475.141.9.386 1.275.735z"/></g></svg>