<svg xmlns="http://www.w3.org/2000/svg" width="437.9" height="99.1"><path fill="#fed74e" d="M7.4 56c-.6-2.2-2.2-8.7-2.6-10.8-1.5-7.7-2.4-18-2.8-33.5a393 393 0 0 0-.3-7.8l-.1-1.7h81.7v2.4c0 4.8-.5 17-.9 23A129 129 0 0 1 78.1 54c-.3 1.3-.3 1.3-.8 1.1-.6-.3-6.4-4.7-16.5-12.5a771.5 771.5 0 0 0-17.5-13.4l-.7-.5-.9.6a823 823 0 0 0-19.1 15 421.8 421.8 0 0 1-15 12l-.2-.5z"/><path fill="#fed74e" d="M39.8 96.1A63.5 63.5 0 0 1 14.3 72c0-.3.4-.6 12.5-10.4a338.3 338.3 0 0 1 15.7-12.4c.5-.3-.5-1 13.5 9.7C66.6 67 71.5 70.8 71.5 71c0 .7-3 5.4-5.3 8.4A63 63 0 0 1 51 93a54.8 54.8 0 0 1-8.3 4.5L39.8 96z"/><path fill="#cd1442" d="M17.4 23.2c-.2-.4-.3-1.6-.1-2.9a6.3 6.3 0 0 1 1.8-4.1c.9-.8 1.5-1.3 3.2-2.2 2.2-1.3 3-2.1 3.6-3.2l.5-1.5.3-1.3 1 1.6a10 10 0 0 1 1 4 21.9 21.9 0 0 1-.9 3.2 6.4 6.4 0 0 0-.4 1.9c0 .5 0 .7.3 1.3l.2.8-.2.1a10.7 10.7 0 0 1-.8-.1l-.8-.2c-.2 0-.4.3-.5.6a3 3 0 0 1 0 .4c-.1 0-.4-.1-.9-.5l-.8-.6-1.4.6a9.3 9.3 0 0 1-3.4 1.2l-.9.2-.4.4c-.2.4-.3.5-.4.3z"/><path fill="#cd1442" d="M17.1 42.4c-.8-.2-.9-.6-.5-1.6l.2-.6V40h-.4l-.7-.1a1 1 0 0 1-.2-.5c-.2-.5.2-1 1.2-1.6.6-.2.8-.5.5-.5-.4 0-.4-.7 0-1.2.5-.5 1.1-.5 1.8 0a3 3 0 0 0 2.9.4 6 6 0 0 0 2.4-1.4c.2-.3-.2-.7-1.5-1.2-1.5-.6-2.3-1-2.8-1.8a2.7 2.7 0 0 1-.3-3c.3-.6 1.3-1.2 2.3-1.4.4-.1.6-.2 1.2-.1h.8c.3-.2-.2-.6-1.7-1.4-1.9-1-3-1.6-3-2-.4-.6.8-1.4 2.7-1.7l1.8-.2a34.1 34.1 0 0 0 1.9-.3c.6-.2.6-.2.7 0 .3.1.5.5.8 1.3a9.4 9.4 0 0 0 1.3 2.1c.8 1 1.8 1.8 2.4 2 .3.1.8 0 1.1-.1 1.4-.7 2.6-3.1 2.2-4.4-.1-.5-.6-.9-1.3-1-.4-.2-.8-.2-1.3 0H31l.1-.9 1.1-1a3.1 3.1 0 0 1 1.1-.2h.4l-.3-1c-.5-1-.8-2-1-2.8a8.1 8.1 0 0 1 0-2.8c.5-2.2 2.2-4.8 4-5.9a9.3 9.3 0 0 1 2-1 5.6 5.6 0 0 1 2.5 0l2.7.8a49 49 0 0 0 4.9 1.5c0 .2-.7.9-1.2 1.3a6.6 6.6 0 0 1-2.5 1l-1.6.2-1.4.1c-.2.1-.2.3 0 .8.4.6.4.8.3 1-.2 0-.5 0-1.2-.5a5.2 5.2 0 0 0-2.5-.8c-1.2 0-2 .2-2.7.9a6.8 6.8 0 0 0-1.5 3v2.1l.4-.4c.5-.8 1.8-2 2-2 .2 0 .6.4.8.8v.6c0 .3-.2.8-.6 1.1l-.4.6c-.2.2-.2.2-.1 1.2l-.1 1.6-.7 3.3c-.4 1.4-.7 2-1.4 2.7a4.2 4.2 0 0 1-2.4 1.4c-.8.2-1.1.4-1.5 1.3a3.6 3.6 0 0 1-1.6 1.5 2.7 2.7 0 0 1-1.8.3h-.6c-.4.4.2 1.3 1.9 2.8l.6.6-1.2.6-1.9 1a17.7 17.7 0 0 0-3.9 3.7c-.8 1-.9 1-1 .9a.6.6 0 0 1 0-.3.6.6 0 0 0-.1-.3c-.1 0-.1-.1-.4 0-.3 0-.6.1-1.1.8a3.7 3.7 0 0 1-.8.7 2 2 0 0 1-1.2.2z"/><path fill="#cd1442" d="M13.1 33c0-.7-.1-.9-.5-1-.3 0-.7 0-1.1.5-.6.5-.8.7-1.3.8L9 33.2c-.4-.2-.5-.7-.2-1.3.3-.4.3-.6 0-.6s-.6.1-.6.3c0 .2-.2.3-.4.3s-.6-.3-.8-.5c-.2-.3-.3-.7-.2-1 .2-.8 1.2-1.4 2-1.1.7.1.7 0 .2-.5-.5-.6-.6-.9-.6-1.2 0-.6.5-1 1.3-1 1.1 0 1.5.3 2 1.9.3 1 .7 1.4 1.3 1.7l.8.1h.8c.4-.2.5-.4.5-1.8l.1-1.3c.1-.4.3-.7.7-1 .4-.4.7-.6 1.2-.8.5-.1 1 0 1.7.3a7.9 7.9 0 0 1 1.8 1.2l-.6.5c-1.5 1.3-2 2.9-1.6 4.5l-.1.2-.7.1a8.1 8.1 0 0 0-3.7 1l-.8.5zM9.7 22.2l-.2-.2c0-.2-.3-.5-.5-.5-.3 0-.7 0-.8.2-.1.3-.8.5-1.4.5-.7 0-1-.8-.4-1.8 0-.2.1-.4 0-.4l-.3-.1c-.4-.1-1.1-.5-1.2-.8-.1-.1 0-.5.2-.8.2-.4.5-.6.8-.6.3 0 .4-.2.3-.7v-1.2l1.5.1c.6.3.9.7 1.2 1.6l.5.8c.6.5 1.7 1 3 1.2.8.2 2.4.2 3 0 .6 0 .8 0 .9.2 0 .3 0 2-.2 2.3-.2.5-1 .5-3 0-1.5-.2-1.7-.2-2.2.1-.3.2-.4.3-.7.3l-.5-.1zm5-4.5a3.8 3.8 0 0 1-.5-.5 4.5 4.5 0 0 0-1-.8 4.4 4.4 0 0 1-2-2c-.4-.5-.8-1-1.3-1.1-.5-.2-.6-.3-.6-.7 0-.4-.2-.8-.6-1.2-.5-.5-1-.8-1.4-.8-.3 0-.7-.2-1.1-.5a4.6 4.6 0 0 0-.7-.4l-.4-.3 1-1c.2 0 .4-.2.4-.3L6 7.2l-.4-.6c-.1-.2-.1-.2 0-.4s.8-.5 1.2-.6c.7 0 1.4.3 1.5.8 0 .4.3.8.6 1 .3.2.4.2.3 0-.2-.4 0-1 .5-1.4.3-.2.3-.3.5-.2.3 0 .6.3.8.7.2.5.3 1 .2 1.6-.2 2.1 1.4 4.5 4.2 6l1.2.6a7.3 7.3 0 0 1 1.6.8v.2a3.6 3.6 0 0 0-.5.6c-.6 1.2-.8 1.3-2 1.3h-.8zm3.5-5.2c-.2 0-.4-.2-.4-.4s.3-.5.4-.5a5 5 0 0 0 1.6-.3c.5-.2.7-.4.8-1 .2-.9 0-1.7-.6-2.2-.4-.4-.5-.4-1.7-.1a4 4 0 0 1-.9.1c-.2 0-.2 0-.2-.3 0-.2 0-.3.3-.5.3-.3 1-.6 2.2-1a6.8 6.8 0 0 1 3.8-.6 4 4 0 0 0 2-.2c.4-.2.5-.1.6.1.3.5.3.9 0 1.4-.4.5-.6 1-.7 2 0 1.5-.4 2.1-1.5 2.7-.8.4-2.1.6-4 .8a7.3 7.3 0 0 1-1.7 0zm4.2-5.2c.4-.2.3-.4-.2-.6-.4-.2-.8-.1-1.2.2-.3.3-.3.5 0 .5h1.4z"/><path fill="#cd1442" d="M15 11a3 3 0 0 1-1.3-1c0-.2 0-.2.2-.3l2.7-.3c1.7-.2 1.9-.1 2.8.9l.4.4H19c-2.2.4-3.4.4-4 .3zm46.6 14.9a11.6 11.6 0 0 1-3.6-1.8 6.2 6.2 0 0 0-1.8-1c-.6-.1-1-.4-1-.8s-.4-.7-1-.6c-.6 0-1 .3-1.7.9-.5.5-1 .9-1.3.9-.6 0-.9-1.2-.5-2 0-.2.2-.3.4-.5.5-.3.6-.5.6-.7h-1.2a1.8 1.8 0 0 1-1.3-.5c-.4-.4-.5-.8-.2-1.4.3-.5.6-.7 1.2-.8.5 0 .9.1 1.6.6l.6.4-.3-.8c-.5-1-.6-1.3-.3-2 .7-1.5 2-.7 2.9 2 .4 1.3.6 1.7 1.1 2.2.5.5 1 .8 2 1a60.1 60.1 0 0 0 4.1 1 9.9 9.9 0 0 0-.1.7V24l.3 1c.3.8.3 1 .2 1-.1.1 0 .1-.7-.1zM60 16.2a4.8 4.8 0 0 0-2.2-.9c-.5 0-.7-.2-.6-.4v-.4-.6a11.2 11.2 0 0 0-1.7-1.9l-.6.5c-.7.6-1 .8-1.6.8-.6 0-1-.1-1-.3-.1-.2 0-.8.1-1.2l.6-.7c.4-.4.4-.6.1-.6-.4-.1-1.1-.8-1.2-1.3a.7.7 0 0 1 .3-.7l1-.1c1 0 1 0 1.2-1.2.1-.5.3-.8.4-.8l1.3.7c.4.4.5.7.6 1.8.1 1.7.4 2 3.5 4.1l2 1.5.3.2-.5.6-1.3 1.4-.7-.4zm.5-5.7a2.4 2.4 0 0 1-1-.4A4.8 4.8 0 0 1 58.6 9c0-.2.5-.2 2-.3 1.6 0 2.4 0 2.8.3l.5.5c0 .2-.6.4-1.4.6l-1.7.4a1.8 1.8 0 0 0-.1 0z"/><path fill="#cd1442" d="M62.8 12.2c-.5-.1-.8-.3-.8-.5s.3-.3 1.2-.5l1-.4c.7-.5.8-1.6.3-2.5-.2-.5-.4-.6-1-.6a3 3 0 0 0-1.2.2l-.8.3-.1-.3c0-.4.2-.8.4-1l.9-.4 1.4-.6c.9-.4 1-.4 1.8-.4.6 0 1 0 2.1.5 1 .3 1.6.4 2.4 0 .7-.1.8-.1.8.4 0 .4-.2.9-.6 1.4-.4.4-.6.8-.8 1.4-.3 1-1 1.7-2.2 2.4-.5.2-1.3.5-2 .6h-2.8zm3-5c.5-.1.7-.2.8-.4.1-.3-.3-.4-.9-.4-.5 0-.8 0-.8.2v.6h1zm-2.5 13.2l-1.2-.6c-1.2-.4-1.4-1-.6-2.2.8-1.4 2.3-2.7 4.5-3.9 2.7-1.6 3.6-2.3 4.3-3.5l.7-1c.3-.1.5.3.7 1.3.4 1.4.3 2.7-.4 5.6a17.3 17.3 0 0 0-.5 3.8c-.1.1-.1.1-1-.1-.5-.2-2.5-.2-3.1 0-.6 0-1 .3-1.4.5-.8.5-1 .6-2 .1z"/><path fill="#cd1442" d="M70.4 46.6c-.3 0-.4-.1-.4-.3l.1-.5c.2-1 .2-1.1-.6-1-.7.1-.8 0-.7-.6 0-1 .3-1.2 1.1-1.5.5-.1.6-.1.5-.2l-.5-.1c-.7-.3-1-.5-.8-.8a4 4 0 0 1 1-1c.2-.2.2-.2.5-.1.5.1 1.2 1 1.2 1.4 0 .3.3.7.5.8h.9a2.5 2.5 0 0 0 .8-2.3l-.1-1c-.3-.6-.8-.9-1.7-1.1a11 11 0 0 0-2.5-.2c-2.4 0-2.4 0-3-.6-.7-.8-.8-1.2-.8-2 0-.9.1-1.8.4-2.2.3-.7 1.5-1.6 2-1.6l.6-.2c.1-.2 0-.6-.1-1a17 17 0 0 0-3.7-3.8 9.9 9.9 0 0 1-2.2-2.3c-.4-.8-.3-2.3.2-2.8.1-.2.2-.1.7.2.6.5.7.5 1.6-.3 1.3-1.2 2.4-1.5 4-1 .3 0 .6.3.7.6 0 .2 0 .9.2 1.6.3 3.2 1 5.3 2.4 7.2l1.4 2.2.5.7c.5.3 1.3 0 2-.5.7-.9 1-2.3.5-3.9-.3-1-.6-1.6-1-1.8h-.6c-.3.2-.6.5-1 1.3l-.3.5-.1-.4a9.5 9.5 0 0 1-.4-.9c-.3-1-.2-1.6.4-2.2.4-.5.8-.6 1.3-.5.6.1.6 0 .5-.4a38.7 38.7 0 0 1-.6-4.6c0-1 0-1.7.6-4.5.7-3.6.9-4.5.7-5.2 0-.5-.5-.7-1.3-.7-.7 0-.8.3-1 2.1 0 1.8-.2 3.2-.4 3.2l-.4-1.5c-.6-2.5-.7-4.4-.4-5.8a3.7 3.7 0 0 1 2.6-2.6h1.4c1.4.5 2.2 1.4 2.4 2.6a6.4 6.4 0 0 1-.7 3.3l-.6 1.4a16 16 0 0 0-1.4 4.3c0 .2 0 .3.2.3 0 0 .2 0 .3-.4l.9-1.2.1.1v4.5c0 2.5-.2 3.2-.7 4.4-.2.6-.2 1.2 0 2 .8 3.1 1 4.1 1 4.9a4 4 0 0 1-2.1 3.3 2 2 0 0 1-1 .2c-.7 0-1 .2-1 .4a5 5 0 0 0 0 1.5c.1.5.3.7 2.8 2.5l.1.1-.5 1.6a30 30 0 0 0-1.2 4 5.5 5.5 0 0 1-.3 1 4.7 4.7 0 0 1-.7 1.3l-.3-.4c-.2-.5-.4-.7-.7-.7-.3 0-.6.2-1.1.6a2.2 2.2 0 0 1-.7.5c-.3.1-1.2.2-1.5.1z"/><path fill="#cd1442" d="M59.4 36.6a1.9 1.9 0 0 0-1.2-.5c-.5 0-.7 0-.7.3-.1.4-.6.4-1 0-.4-.3-.5-.8-.2-1.3v-.5a3 3 0 0 1-.5.1c-.7 0-1.4-.9-1-1.5 0-.2.4-.6.8-.8.3-.2.5-.3.4-.4a.8.8 0 0 0-.2 0c-.4-.2-.4-.7 0-1.2.4-.6 1.2-.8 1.7-.5.5.2.8.6 1.3 1.8.8 1.5 1.3 2 2.2 2.1 1 .1 1.5-.4 1.7-2 .2-1.6.5-2.4 1-3 .2-.3.4-.4.9-.4.8 0 1.9.9 2.2 1.6.3.6.3.6-.6 1.5a4.3 4.3 0 0 0-1 1.2c-.2.5-.4 1.2-.4 1.9 0 .6 0 .9-.2 1l-1.2.1c-1.2 0-1.9.2-2.9.6l-.6.2-.5-.3zM39.1 62c-.3-.2-.1-.6.4-.7l.8-.5c.5-.5.6-.8.5-1.4a2.9 2.9 0 0 0-.5-1.2c-.3-.3-.6-.3-1.3 0l-.6.1c-.3-.1.2-.9.7-1.2l3.3-1.7c.4-.2 1-.1 2.1 0 1.2.3 2.1.3 2.7.1.5-.2.7-.2.8 0 .1 0 .1 0 0 .2l-.4.8a5.7 5.7 0 0 0-.9 1.7c-.3 1-.7 1.4-2.2 2.2-2.6 1.3-4.9 2-5.4 1.6zm4.5-5c.3-.3.4-.4 0-.6-.5-.2-1.2 0-1.4.2-.2.2-.2.2 0 .4l.6.1a2 2 0 0 0 .8-.2z"/><path fill="#cd1442" d="M45.5 71.3a10.6 10.6 0 0 1-1.9-1.9 4 4 0 0 1-.4-.8 1.6 1.6 0 0 0-.2-.5h-.5c-.8.4-1 .5-1.5.5-.5.2-1.1.1-1.3 0v-.5c0-.5 0-.6-.3-.6s-.5.1-1.1.5l-.5.3v-.5c0-.8 1.2-3 2.2-4 .5-.4.6-.5 1.3-.8a23 23 0 0 1 1.7-.7c2.4-1 3.5-1.8 4.4-3.4.6-1 .6-1 1-.6.4.6.4 1.1.1 5.6a51.4 51.4 0 0 0-.2 4.8l.1 1.5c.4.8.4.9.3 1l-.9-.3c-.6-.2-.6-.2-1.1.2-.5.5-.7.6-1.2.3zm-9.1-10.8a5.8 5.8 0 0 1-.8-.7l-.5-.5 1.4-.2c2.5-.2 3.6 0 3.7.6 0 .1 0 .2-.6.3-.6.3-2 .7-2.5.7l-.7-.2zm-2.2 6.6v-.5c0-1-.5-1.1-1.4-.6-.8.6-1.2.7-1.9.6-.8-.2-.9-.3-.9-1.2 0-1 .1-1.1 1-1.3l.6-.2-.7-.4-1-.6c-.4-.4-.2-.8.6-1.4.8-.5 1-.5 2 .6.7.7 1 1 1 .6 0 0 0-.3-.2-.5-.2-.4-.2-.7 0-1.2.1-.5.3-.8.6-.8.4 0 1.2.8 1.6 1.5l.2.7a2 2 0 0 0 2 1.9c.3 0 .3 0 .4.2l-.4.9c-.6 1-1 1.4-2.2 1.7l-.8.1h-.5zm2.9 6.3a89.2 89.2 0 0 1-2.7-1c-2.2-.8-2.1-.7-2.6-.7-.4 0-.7.1-1.4.4l-1 .3a2.2 2.2 0 0 1-.2-.6c-.3-.8-.6-1.2-.9-1-.1 0-.3.1-.4.6-.3.9-.7 1.3-1.3 1.3-.4 0-.6-.1-1-.5-.2-.3-.3-.4-.3-.8 0-.3-.1-.4-.7-.4-.5 0-.8-.1-1-.3v-1.5c.3-.6.9-1 1.7-1 .4 0 .8 0 .8-.2l-.4-.5-.3-.5c0-.2.4-.6 1-1 .3-.3.6-.3 1.1 0 .8.3 1.1.8 1.4 1.6.2.6.3.8.6 1 .8.8 1.9 1 5.7 1l2.2.2a8 8 0 0 1 .2 1c.1 1.2.3 1.9.7 2.4.2.3.3.5.2.6h-.1l-1.3-.4z"/><path fill="#cd1442" d="M41 92.4l-.1-.7c0-.7.3-1.2.9-1.9.5-.5.6-.7.5-.8h-.6a6 6 0 0 1-.6.3c-.3.1-1.3-.2-1.6-.5-.2-.1-.2-.2-.2-.3a4.2 4.2 0 0 1 1.3-1.3c.3-.2.4-.2 1-.2.7 0 .7 0 .7-.2 0 0 0-.3-.2-.5l-.2-.6c0-.4.6-.6 1.5-.6.6 0 1 .2 1.2.5.2.2.3.4.4 1 0 .4.2.8.6 1.1.2.4.7.6 1 .6.3 0 1.4-1.6 1.6-2.4l-.1-.4-2.2-1.4c-2.8-1.6-3.7-2.4-4.2-3.4-.5-.9-.6-1.5-.3-2.1A6.3 6.3 0 0 1 43 77l1.2-.1h1c0-.3-.7-.8-2.9-1.9l-2.2-1.2c-1.4-1-1.8-1.8-1.7-3.3 0-.8.2-.9 1.4-1a6.4 6.4 0 0 0 1.8-.4c.4-.2.7 0 1.8 1.4 1.4 1.7 2 2.3 2.5 2.3.2 0 .4-.1.9-.7.4-.6.4-.6.7.1l.4 2.8c0 1.6.3 2.6.8 3.5.3.6 1.2 1.4 1.6 1.6.7.4 2.4.4 3.1 0a7.9 7.9 0 0 0 2.3-2.3c.2-.4.2-.4.2-1 0-1.1-.2-1.4-.8-1.6-.6-.1-1.1 0-1.8.7-.6.6-.7.6-.8 0 0-.7.5-2 1-2.5.3-.3.5-.4 1-.5.7 0 .9-.2.9-.4s-.2-.4-.6-.8a1.8 1.8 0 0 1-.3-.3H55.9l.7.1.2-.2c.4-.3.7-1.7.7-2.8 0-1-.3-2.4-.8-3.2-.5-.9-1.2-1.4-2-1.5l-.5.1c-.2.2-.1.4.5.9.8.7 1.3 1.5 1.3 2.1 0 .3 0 .4-.2.7l-.4.5c-.3 0-.4.2-.6 1-.3.7-.6 1.3-1.2 2l-.5.6v-.4c0-1.6-.4-2.7-1.8-5-.6-1.2-.8-1.5-.7-2.2 0-.5.2-1 .7-1.5a2.5 2.5 0 0 1 2.5-.8c1.7.3 3 1.4 3.9 3.2a8.1 8.1 0 0 1 .9 4.7c-.1 1 0 1 .4.6.5-.4.7-.5 1.2-.4l1 .1.4.1-.4.5a5.5 5.5 0 0 0-1.1 1.8c-.2.5-.2.6-.2 1.3 0 1 0 1-.8 1.4-.8.4-1.4 1.2-2.3 2.7-1.3 2.3-2.2 3.2-3.5 3.5-.6.2-2.4.1-3.6-.2a4.6 4.6 0 0 0-.7 0c-.3 0-.3 0-.3.2s0 .3.3.7c.6.8 1.5 1.8 2.7 2.5l.3.3c0 .3-.5 1-2 2.8-1.8 2.3-2.9 3.1-4 3.2-.5 0-.6 0-.5-.4 0-.4 0-.5-.4-.5-.6 0-1.3.5-1.7 1.4-.3.6-.5.7-1 .8-.6 0-.8.1-1 .3-.1.3-.2.3-.4 0z"/><path fill="#cd1442" d="M29.6 84c-.4-.3-.5-1-.4-1.5V82c-.2-.4-.8-.5-1.3-.1-.4.2-.5.2-.5-.6 0-1 .2-1.5.8-1.7h.7l.8-.1c0-.3-.2-.5-.7-.5-.6-.1-.7-.5-.4-1a1.4 1.4 0 0 1 1.5-.9c.3 0 .7.3.9.5l.2.5c.2.8.8 1.4 1.8 1.7.5.1.6.2 1.5.2 1.5 0 2-.2 2-.7 0-.2 0-.3-.3-.6a3.8 3.8 0 0 1-.7-1.3c-.1-.6.1-1.1.7-1.7 1-1 2-1 4.5.2a5 5 0 0 1 1.4.8l-.3.2a2 2 0 0 0-1 1.3 5 5 0 0 0 0 2.8l.2.6c0 .2-.2.2-1 .3-1.4 0-2 .2-4 1.2l-1.4.6-.1-.4c0-.7-.1-.7-1-.7a3.8 3.8 0 0 0-2.7 1c-.5.4-.8.6-1 .6l-.2-.1z"/><path d="M39.2 97.4A64.3 64.3 0 0 1 7.7 61.1C3.3 50 1.4 39.3.5 20.2A656.7 656.7 0 0 1 0 2.4v-2h85v4.8c-.7 25.7-1.8 36.7-5 47.9a85 85 0 0 1-12.5 26.4 68.4 68.4 0 0 1-25 19.6l-3.3-1.7zm5.2-1c7.5-3.7 15.5-10 20.6-16.4 2.8-3.5 5.7-8.1 5.7-9 0-.2-3-2.5-8.4-6.7a1479.7 1479.7 0 0 0-19.5-14.9c-.3-.1-.7.1-2 1.2a2952.7 2952.7 0 0 0-26.2 21.2c-.2.4 3.8 6.2 5.8 8.6a60.2 60.2 0 0 0 16.4 13.8c2.1 1.3 5.4 3 5.7 3l1.9-.9zm-22-37a509 509 0 0 1 19.9-16c.5 0 16.6 12 27.3 20.4a34.2 34.2 0 0 0 3.5 2.6l.7-.9c.6-1.1 2-4.8 2-5.3 0-.2-.5-.8-1.6-1.7a6331.6 6331.6 0 0 0-31.8-24A2267.6 2267.6 0 0 0 9.6 61c-.1.8 2.4 6.6 2.8 6.5l10-8.1zm.4-15.3a324.7 324.7 0 0 1 19.8-15.4c.3 0 6.1 4.5 18.6 14.2C73 51.9 75.8 54 77 54.7l.7.4.3-.6a94 94 0 0 0 2.2-8.9c1.8-9 2.7-19.8 3-38l.2-5.4H1.6v1.2L2 9c.2 12.6 1 23.7 2 30.8.5 3.7 1.1 6.6 2.3 11.2 1.3 5.3 1.2 5 1.5 5l15.1-12zm342.9 27.6A21 21 0 0 1 351 58.5a24.6 24.6 0 0 1-.6-11.9 20.7 20.7 0 0 1 15-15.3 27.3 27.3 0 0 1 11.9 0c7.6 2 13.6 8.2 15 15.8 1 5 .4 9.2-1.8 13.7a21.4 21.4 0 0 1-14.2 11c-3 .6-7.7.6-10.6-.1zm10.5-8.8a12 12 0 0 0 5.8-5.6c1-2 1-2.3 1-5.8 0-3.3 0-3.9-.8-5.5a12.6 12.6 0 0 0-5.5-5.7c-1.9-1-2.1-1.1-5.3-1.1-3.2 0-3.5 0-5.5 1a10.8 10.8 0 0 0-5.3 5.4c-3.4 7.2 0 15.5 7.3 18 2.2.6 6.1.3 8.3-.7zm35.3 9c-7.6-1.8-13.3-7-15.5-14.3-.6-2-.8-3.1-.8-6.3a20.9 20.9 0 0 1 14.4-19.7c2-.6 2.9-.7 7-.7 4.5 0 5 0 7.4.8a20.8 20.8 0 0 1 13 13c1 3 1.2 8.8.5 11.6a24.6 24.6 0 0 1-4.7 9 22.4 22.4 0 0 1-9 5.8c-2.2.8-3.2 1-6.5 1-2.5.1-4.5 0-5.8-.3zm10.2-9c7.6-3.6 9.3-14.4 3.2-20.5a15 15 0 0 0-3.3-2.4c-1.6-.7-2.1-.8-5.1-.8-2.8 0-3.6 0-4.9.7a13.6 13.6 0 0 0-5.9 6c-.8 1.7-.9 2.2-.9 5.4s.1 3.7.9 5.4c1.6 3.5 3.7 5.4 7 6.7 2.5.9 6.5.7 9-.5zM106.3 51.8l-6.9-20.3c0-.4.7-.5 4.7-.5h4.8l.7 2.2 4.1 13.4 3.5 11.3 4.5-13.5 4.4-13.5 3.9-.1 3.8-.1 4.4 13.4a183 183 0 0 0 4.7 13.2l4.2-13.2 4-13.1h9.4s-3 9.2-6.9 20.3l-6.8 20.2h-8l-4.4-12.8a381.6 381.6 0 0 0-4.5-12.9l-4.6 13-4.4 12.7h-8zM157 71.4c.1-.2 16.4-38.3 17-40 .2-.3 1.4-.4 4.4-.4h4.2l8.4 19.8 8.6 20.3c.2.5 0 .6-4.5.5l-4.7-.1-1.8-4.4-1.8-4.4h-17l-1.8 4.4-1.7 4.4h-4.8c-2.6.1-4.6 0-4.5-.1zm26.4-17a260.1 260.1 0 0 0-5-12.2c-.2 0-4.4 10.2-5.1 12.2-.1.2 2 .3 5 .3s5.1-.1 5-.3zm26 1.3v-16h-12.2v-8.4h33.3v8.4h-12.2v32h-9zm27.8-4.2V31.3h30.4v8h-21.4v8H265v8h-18.9v8.4H268v8h-30.7zm40 0V31.3H289c11.3.2 11.8.2 13.5 1 4 1.5 6.7 4.2 7.9 7.6.8 2.7.7 7.6-.2 10a14 14 0 0 1-6 6.5l-1.6.9 4.9 7.2 4.9 7.2-5.4-.1-5.3-.1-4.3-6.3-4.2-6.3h-6.7v12.8h-9.3V51.5zm20.7-1.1a5.1 5.1 0 0 0 4-5.3c0-2.9-1.7-4.8-4.5-5.4-1-.2-3.8-.4-6.3-.4h-4.6V51h4.9c3.4 0 5.4-.2 6.5-.5zm22.8 1.1V31.3h9v32h18.8v8.4h-27.8zM125.7 18.3c-3.4-1.6-4-3.3-4-11.7V.3h4.2v5.8c0 6.3.2 7.3 1.8 8.6 1.2 1 3.6.8 4.8-.3 1.2-1.2 1.4-2.6 1.4-8.6V.3h4.2v6c0 7.3-.3 8.8-2.4 10.8-1.5 1.6-3 2-6.1 2-1.8 0-2.6-.1-4-.8zm69.4-7.5a2221.2 2221.2 0 0 0-3.8-9.5l-.4-1h4.7l2.3 6.3 2.4 6.4 2.4-6.3 2.4-6.4h4.6L206 9.6l-3.8 9.4h-1.9l-1.9.2zm78.1 7.9c-1.4-.5-4.2-2.1-4.2-2.5 0-.1.5-.8 1.2-1.5l1.2-1.3 1.7 1c3 1.6 6.4 1.2 6.4-.8 0-.7-1.2-1.4-3.8-2.1-1.3-.4-3-1-3.7-1.5-3.3-1.9-3-7.1.5-9 2-1.2 5.8-1.2 8.2-.1 2.5 1.1 2.6 1.4 1.4 3.2l-1 1.5-1.8-1c-2.5-1.2-4.8-1-5.3.3-.4 1.1.4 1.8 3.2 2.6 5 1.5 6.5 2.9 6.5 5.8 0 3.7-2.5 5.9-6.9 5.8-1.2 0-2.8-.2-3.6-.4zm106.6 0c-3-1.1-5.6-4.5-6-7.9-.3-2 .5-5 1.7-6.8 3.3-4.8 11-5.4 15.2-1.3a9.8 9.8 0 0 1 1.8 11.3 8.6 8.6 0 0 1-4.3 4.3c-1.7.9-6.4 1-8.4.4zm5.9-3.7c3-1.2 4.3-5.2 2.6-8.3-2.6-4.6-9.3-3.2-10 2-.7 4.3 3.4 7.8 7.4 6.3zm-237-5.4V.3h4l4.1 5.5 4.2 5.5V5.8l.2-5.5h4v18.5H161.7l-4.1-5.4-4.4-5.6c-.2-.1-.3 2.3-.3 5.4v5.6h-4.2zm28.1 0V.3h4.2v18.5h-4.2zm42.6 0V.3h14V4h-9.9v3.5h8.7v3.9h-8.7v3.8h10.3v3.5h-14.4zm24.6 0V.1l5.7.1c5.5.1 5.7.2 7.2 1 3.7 2.2 3.8 8.4 0 10.4l-1 .7 2 3a35.2 35.2 0 0 1 2.1 3.3l-2.4.1h-2.4l-2-2.8-1.8-3h-3.2v5.8H244V9.6zm10.4-1.1c.7-.5 1-1 1-1.8s-.3-1.3-1-1.8c-.7-.7-1.2-.8-3.5-.8h-2.7v5.1h2.7c2.3 0 2.8 0 3.5-.7zm39.8 1V.4h4.2v18.5h-4.1zm20.2 2V4h-5.7V.3h15.6V4h-5.7V19h-4.2zm25 3.8v-3.6l-3.5-5.5a129.4 129.4 0 0 1-3.6-5.7c0-.1 1.1-.2 2.4-.2h2.4l2.2 3.6 2.2 3.7 2.2-3.7 2.2-3.6h2.3l2.4.1-3.6 5.7-3.5 5.5v7.3h-4.1zM402 9.6V.3h14.4V4h-10V8h8.7v3.8h-8.6v7H402z"/><path d="M12.2 67.3c-.4-.4-2-4.2-2.4-5.5-.2-.5-.2-.6 0-.8.1-.3 1.2-1.3 3.5-3.2 4.4-3.6 28.5-23 29-23.2.3-.2.6 0 14.2 10.4 18 13.8 19 14.5 19.2 15 .1.2 0 .3-.1 1-.7 2-1.9 4.7-2.3 5.1l-.2.2-.4-.2a516.5 516.5 0 0 0-30.4-22.7c-.2 0-2.7 2-16.6 13.3a912.6 912.6 0 0 1-13.3 10.8l-.2-.2z" fill="#fff"/></svg>